<mxfile host="www.draw.io" modified="2020-08-10T14:19:12.797Z" agent="5.0 (Macintosh; Intel Mac OS X 10_12_6) AppleWebKit/537.36 (KHTML, like Gecko) Chrome/83.0.4103.116 Safari/537.36" etag="unm16yOj2e8ahMWhe25X" version="13.0.9" type="github">
  <diagram id="wlEa9QsBZ5RMu_Bk0HzQ" name="Page-1">
    <mxGraphModel dx="4477" dy="1309" grid="0" gridSize="10" guides="1" tooltips="1" connect="1" arrows="1" fold="1" page="0" pageScale="1" pageWidth="827" pageHeight="1169" math="0" shadow="0">
      <root>
        <mxCell id="0" />
        <mxCell id="1" parent="0" />
        <mxCell id="PJ8-2Goyk3axcg4vqFP9-49" value="" style="rounded=1;whiteSpace=wrap;html=1;dashed=1;" vertex="1" parent="1">
          <mxGeometry x="-706" y="-112" width="523" height="728" as="geometry" />
        </mxCell>
        <mxCell id="PJ8-2Goyk3axcg4vqFP9-47" value="" style="rounded=1;whiteSpace=wrap;html=1;dashed=1;" vertex="1" parent="1">
          <mxGeometry x="-662" y="-46" width="154" height="660" as="geometry" />
        </mxCell>
        <mxCell id="PJ8-2Goyk3axcg4vqFP9-32" value="" style="rounded=1;whiteSpace=wrap;html=1;dashed=1;" vertex="1" parent="1">
          <mxGeometry x="-1116" y="63.5" width="156" height="533" as="geometry" />
        </mxCell>
        <mxCell id="i-qYyfxA9N3GB8noAhmj-4" value="YARN Master" style="rounded=1;whiteSpace=wrap;html=1;fillColor=#ffe6cc;strokeColor=#d79b00;" parent="1" vertex="1">
          <mxGeometry x="530" y="87" width="120" height="60" as="geometry" />
        </mxCell>
        <mxCell id="i-qYyfxA9N3GB8noAhmj-5" value="K8S Master" style="rounded=1;whiteSpace=wrap;html=1;fillColor=#dae8fc;strokeColor=#6c8ebf;" parent="1" vertex="1">
          <mxGeometry x="196" y="85" width="120" height="60" as="geometry" />
        </mxCell>
        <mxCell id="i-qYyfxA9N3GB8noAhmj-6" value="" style="rounded=0;whiteSpace=wrap;html=1;" parent="1" vertex="1">
          <mxGeometry x="240" y="230" width="370" height="200" as="geometry" />
        </mxCell>
        <mxCell id="i-qYyfxA9N3GB8noAhmj-7" value="Level0 Master" style="rounded=1;whiteSpace=wrap;html=1;fillColor=#f8cecc;strokeColor=#b85450;" parent="1" vertex="1">
          <mxGeometry x="365" y="-3" width="120" height="60" as="geometry" />
        </mxCell>
        <mxCell id="i-qYyfxA9N3GB8noAhmj-8" value="K8S Agent" style="rounded=1;whiteSpace=wrap;html=1;fillColor=#dae8fc;strokeColor=#6c8ebf;" parent="1" vertex="1">
          <mxGeometry x="250" y="250" width="100" height="40" as="geometry" />
        </mxCell>
        <mxCell id="i-qYyfxA9N3GB8noAhmj-9" value="Level0 Agent" style="rounded=1;whiteSpace=wrap;html=1;fillColor=#f8cecc;strokeColor=#b85450;" parent="1" vertex="1">
          <mxGeometry x="375" y="310" width="100" height="40" as="geometry" />
        </mxCell>
        <mxCell id="i-qYyfxA9N3GB8noAhmj-10" value="YARN Agent" style="rounded=1;whiteSpace=wrap;html=1;fillColor=#ffe6cc;strokeColor=#d79b00;" parent="1" vertex="1">
          <mxGeometry x="500" y="250" width="100" height="40" as="geometry" />
        </mxCell>
        <mxCell id="i-qYyfxA9N3GB8noAhmj-11" value="" style="endArrow=classic;html=1;exitX=0.5;exitY=1;exitDx=0;exitDy=0;entryX=0.5;entryY=0;entryDx=0;entryDy=0;" parent="1" source="i-qYyfxA9N3GB8noAhmj-5" target="i-qYyfxA9N3GB8noAhmj-8" edge="1">
          <mxGeometry width="50" height="50" relative="1" as="geometry">
            <mxPoint x="40" y="270" as="sourcePoint" />
            <mxPoint x="90" y="220" as="targetPoint" />
          </mxGeometry>
        </mxCell>
        <mxCell id="i-qYyfxA9N3GB8noAhmj-12" value="" style="endArrow=classic;html=1;exitX=0.5;exitY=1;exitDx=0;exitDy=0;dashed=1;" parent="1" source="i-qYyfxA9N3GB8noAhmj-7" target="i-qYyfxA9N3GB8noAhmj-9" edge="1">
          <mxGeometry width="50" height="50" relative="1" as="geometry">
            <mxPoint x="60" y="280" as="sourcePoint" />
            <mxPoint x="110" y="230" as="targetPoint" />
          </mxGeometry>
        </mxCell>
        <mxCell id="i-qYyfxA9N3GB8noAhmj-13" value="" style="endArrow=classic;html=1;exitX=0.5;exitY=1;exitDx=0;exitDy=0;entryX=0.5;entryY=0;entryDx=0;entryDy=0;" parent="1" source="i-qYyfxA9N3GB8noAhmj-4" target="i-qYyfxA9N3GB8noAhmj-10" edge="1">
          <mxGeometry width="50" height="50" relative="1" as="geometry">
            <mxPoint x="70" y="360" as="sourcePoint" />
            <mxPoint x="120" y="310" as="targetPoint" />
          </mxGeometry>
        </mxCell>
        <mxCell id="i-qYyfxA9N3GB8noAhmj-14" value="" style="endArrow=classic;html=1;exitX=0;exitY=0.5;exitDx=0;exitDy=0;entryX=0.5;entryY=1;entryDx=0;entryDy=0;dashed=1;" parent="1" source="i-qYyfxA9N3GB8noAhmj-9" target="i-qYyfxA9N3GB8noAhmj-8" edge="1">
          <mxGeometry width="50" height="50" relative="1" as="geometry">
            <mxPoint x="20" y="350" as="sourcePoint" />
            <mxPoint x="70" y="300" as="targetPoint" />
          </mxGeometry>
        </mxCell>
        <mxCell id="i-qYyfxA9N3GB8noAhmj-15" value="" style="endArrow=classic;html=1;exitX=1;exitY=0.5;exitDx=0;exitDy=0;entryX=0.5;entryY=1;entryDx=0;entryDy=0;dashed=1;" parent="1" source="i-qYyfxA9N3GB8noAhmj-9" target="i-qYyfxA9N3GB8noAhmj-10" edge="1">
          <mxGeometry width="50" height="50" relative="1" as="geometry">
            <mxPoint x="385" y="340" as="sourcePoint" />
            <mxPoint x="310" y="300" as="targetPoint" />
          </mxGeometry>
        </mxCell>
        <mxCell id="i-qYyfxA9N3GB8noAhmj-17" value="物理机" style="text;html=1;strokeColor=none;fillColor=none;align=center;verticalAlign=middle;whiteSpace=wrap;rounded=0;" parent="1" vertex="1">
          <mxGeometry x="435" y="382.5" width="40" height="20" as="geometry" />
        </mxCell>
        <mxCell id="i-qYyfxA9N3GB8noAhmj-18" value="K8S container" style="rounded=1;whiteSpace=wrap;html=1;fillColor=#dae8fc;strokeColor=#6c8ebf;" parent="1" vertex="1">
          <mxGeometry x="255" y="361" width="81" height="37" as="geometry" />
        </mxCell>
        <mxCell id="i-qYyfxA9N3GB8noAhmj-20" value="YARN container" style="rounded=1;whiteSpace=wrap;html=1;fillColor=#ffe6cc;strokeColor=#d79b00;" parent="1" vertex="1">
          <mxGeometry x="509" y="361" width="81" height="37" as="geometry" />
        </mxCell>
        <mxCell id="i-qYyfxA9N3GB8noAhmj-21" value="" style="endArrow=classic;html=1;exitX=0.44;exitY=1.1;exitDx=0;exitDy=0;exitPerimeter=0;entryX=0.5;entryY=0;entryDx=0;entryDy=0;" parent="1" source="i-qYyfxA9N3GB8noAhmj-8" target="i-qYyfxA9N3GB8noAhmj-18" edge="1">
          <mxGeometry width="50" height="50" relative="1" as="geometry">
            <mxPoint x="63" y="349" as="sourcePoint" />
            <mxPoint x="113" y="299" as="targetPoint" />
          </mxGeometry>
        </mxCell>
        <mxCell id="i-qYyfxA9N3GB8noAhmj-22" value="" style="endArrow=classic;html=1;exitX=0.5;exitY=1;exitDx=0;exitDy=0;" parent="1" source="i-qYyfxA9N3GB8noAhmj-10" target="i-qYyfxA9N3GB8noAhmj-20" edge="1">
          <mxGeometry width="50" height="50" relative="1" as="geometry">
            <mxPoint x="108" y="384" as="sourcePoint" />
            <mxPoint x="158" y="334" as="targetPoint" />
          </mxGeometry>
        </mxCell>
        <mxCell id="i-qYyfxA9N3GB8noAhmj-23" value="" style="rounded=1;whiteSpace=wrap;html=1;" parent="1" vertex="1">
          <mxGeometry x="76.5" y="650" width="307" height="64" as="geometry" />
        </mxCell>
        <mxCell id="i-qYyfxA9N3GB8noAhmj-24" value="在线实际使用量" style="rounded=1;whiteSpace=wrap;html=1;fillColor=#dae8fc;strokeColor=#6c8ebf;" parent="1" vertex="1">
          <mxGeometry x="77.5" y="652" width="61.5" height="60" as="geometry" />
        </mxCell>
        <mxCell id="i-qYyfxA9N3GB8noAhmj-28" value="离线保障实际使用" style="rounded=1;whiteSpace=wrap;html=1;fillColor=#ffe6cc;strokeColor=#d79b00;" parent="1" vertex="1">
          <mxGeometry x="139" y="652" width="71" height="60" as="geometry" />
        </mxCell>
        <mxCell id="i-qYyfxA9N3GB8noAhmj-32" value="在线资源使用量" style="text;html=1;strokeColor=none;fillColor=none;align=center;verticalAlign=middle;whiteSpace=wrap;rounded=0;" parent="1" vertex="1">
          <mxGeometry x="98" y="617" width="94" height="20" as="geometry" />
        </mxCell>
        <mxCell id="i-qYyfxA9N3GB8noAhmj-33" value="机器剩余资源" style="text;html=1;strokeColor=none;fillColor=none;align=center;verticalAlign=middle;whiteSpace=wrap;rounded=0;" parent="1" vertex="1">
          <mxGeometry x="259" y="617" width="94" height="20" as="geometry" />
        </mxCell>
        <mxCell id="i-qYyfxA9N3GB8noAhmj-37" value="" style="shape=image;verticalLabelPosition=bottom;labelBackgroundColor=#ffffff;verticalAlign=top;aspect=fixed;imageAspect=0;image=data:image/png,iVBORw0KGgoAAAANSUhEUgAAAsAAAAGSCAYAAADtgXeOAAAgAElEQVR4AeydCbQmVXmuSYy5axkxWeFGo6AmqORCEogYVGJQYi4XFU1fQpCO4gVpQGWSQeYZmqGRppmhGxqQGWRo6EbGZmhmmu5mbJpJxmZoQFBkbt13PYVvsU+dqv/85x/qVP317rXq1H+qdu3h3fv7vre++mrXMsHJCBgBI2AEjIARMAJGwAg0CIFlGtRXd9UIGAEjYASMgBEwAkbACAQTYE8CI2AEjIARMAJGwAgYgUYhYALcqOF2Z42AETACRsAIGAEjYARMgD0HjIARMAJGwAgYASNgBBqFgAlwo4bbnTUCRsAIGAEjYASMgBEwAfYcMAJGwAgYASNgBIyAEWgUAibAjRpud9YIGAEjYASMgBEwAkbABNhzwAgYASNgBIyAETACRqBRCJgAN2q43VkjYASMgBEwAkbACBgBE2DPASNgBIyAETACRsAIGIFGIWAC3KjhdmeNgBEwAkbACBgBI2AETIA9B4yAETACRsAIGAEjYAQahYAJcKOG2501AkbACBgBI2AEjIARMAH2HDACRsAIGAEjYASMgBFoFAImwI0abnfWCBgBI2AEjIARMAJGwATYc8AIGAEjYASMgBEwAkagUQiYADdquN1ZI2AEjIARMAJGwAgYARNgzwEjYASMgBEwAkbACBiBRiFgAtyo4XZnjYARMAJGwAgYASNgBEyAPQeMgBEwAkbACBgBI2AEGoWACXCjhtudNQJGwAgYASNgBIyAETAB9hwwAkbACBgBI2AEjIARaBQCJsCNGm531ggYASNgBIyAETACRsAE2HPACBgBI2AEjIARMAJGoFEImAA3arjdWSNgBIyAETACRsAIGAETYM8BI2AEjIARMAJGwAgYgUYhYALcxXC//vrr4YEHHggvvfRSF6W8d+mTTz753j8Fv6jrnXfeSc6+9dZb4fe//31BzvYO/+pXvwovv/xyWmZ7V41drsWLF7es/Ne//nUyHsKoZWafNAJGoO8IvPbaawG5HNT029/+ti9dQ7+/+eabfSm7bnq/LyC40MYjYALcxRT4+c9/HpZZZpmwyiqrhKVLl3ZRUghLlixJylpxxRXDb37zm9yyDj744CTPggULAht1r7feeuGNN97Izc/Be+65J5x77rnhhRdeGJbn7bffDmussUZSzqWXXjrsfDsHZs6cGe66665hWZ9//vnw3HPPjXpr1RduNujzhhtuGLj5yEvf/va3kzy33npr3uncY9xUdNLW+Br6W5S4SZk4cWKYMGFC2GKLLUa9bb/99i3HuKheHzcCY43As88+m8jjWmutNUxHQsKQvaJtpLZz/eOPP567Pf300+nlrfJx/e9+97s0b6sfkFHk/N577w0XX3xx2HvvvcMXv/jFsOyyy4Zf/vKXuZeSj/N333137vmig9dee22CG/oO/T3aNEh6f7R9d34j0C4CJsDtIpXJB6nZYIMNEiV17LHHZs6O/t/zzz8/KWullVYKENO8tNVWWyV5IJyPPfZY+PCHP5z8/61vfSvXg4viR4Fq23bbbcODDz6YFn3JJZek50466aRw1VVXhSuvvDJ3yyO6M2bMSK8/44wz0nLxiEDkVe9o9pDEIq/28ccfn5Q5fvz4wjz0kfrySHnawMwPkebRtDMv7znnnJMp+d1/wYObJK6hfxDaLbfcsuW23XbbhR/+8IfJNYwzY+lkBOqGgG5akbGYaI6kI9qZ88hSnhxyLCbc6IuifJDTPNnad999kxvtr3/962H11VcvvF7l/uxnPxs2NOgxtXHu3LnDzhcdQBerXO0POuigYTcQRdcPmt4v6qePG4FuETAB7hDBRx55JFVSjz76aIelvHsZhuFLX/pSUl6ru32ROynThx9+OG3DNttsM4wU8gjt5ptvDptsskmaD8OCJwOPsAi0lOxI+8MPP3xIP3m0CZnTdXvttVdi5PDirrrqqsnxddddN2BE4k35yRMf5zce0thQqsK4TIjmpEmTwu677z5sE/HebLPNhp0j/0477RReffVVFZvshava1em+6EZIbQfvefPmBeYOY9dq4wZn/vz5CYbtkIEhHfI/RqAiCDz00EPJHOYmPZZryUSRrLUz5yW366yzTqKH0EW6aYwJd6t8RfUcccQRqV7LtpH6jjrqqHD55ZcnMhyHKUA+0c96QqW6pbNbDQv6FP2n+mjDqaeemv6Pfmz1pEllD5LeV5+8NwL9QMAEuAWqPEZaYYUVEg8AXgBtKCIpKfYQOR6F6XyrfR7BE9GhrjxvhJooDzAkSkkeltgDq3PxHkOEUZg9e3YSj6fQB+oklIMQCJFWPNsXXnhh8ugNsqm+ovDz0sknn5zmgYjTB8rCuOTF/snjGnuj88qNj11//fVJHRBcHqvKo6q2tbvP8/jISClsgvhhNsJaaD910RfCVEg6rzhjee9HIsDttjGbr8hIx/j4txGoIgLcyDGfs09t8ABLRyg8KytvrXQhfUVukQ2IoxJPzyg3S4CL8rWSLcm5ytYTs9NOO02Hhu3PPPPMpL/SJdLZIxFgdDptkezHjhCeyuk4+osnde2muuv9dvvpfEagEwRMgFugFt99SwF1u1977bWHeEJ4TCYlecwxxyStIQb4xRdfHNYyETXIKjFueHchX1/96lcThU+YQjuJx+/0A4X71FNPJZfQju9973vJcUiyEkYI0kleEUCdi/ezZs1KlTTKHoLNNRBIDNxtt92WeD+vvvrq5DiKHMV+xx13JOc4j7HMS3iOwI028yiQxM3JFVdcMSRcg3ZrfCCjxNHlhXTEHhvKEq55RkqeKvpSZJAVC94OASYWsJ2YYzw9xCeKfBfVnYeXjxmBsURg4cKFidzdeOON4dBDD01kEn2AfELeIGVFclV0PK8/IsDxTbauzyPAefny5Bo9tPHGG6deZTzLu+66a6pbcHBwTBte5wMOOCB5AiddIF0i3a7/s/2gTXvssUdaNnrx9ttvz2YLYKqnW+i4TTfdNIz0QnC2kLrp/Wz7/b8R6DUCJsAtEIXw8cIDXlZtKG95H1FI9913X3qOPHqsrfzxHtImb4eqpTyRURFMKVteekMZ4t1FSaKsRfDy9tkQBdXBHoLLSxuEWixatCjxVov8cj5+6QJvtgi4PBp4cOJHmHHZ+o1xg9DihRFxwztz9tlnt2y3+lLUfkizMBpppYzddtstycu4tJtEgPPihuVREpnPK1OeoSICHMcAQwSyYR9F/zMO6rcJcB7yPlZFBPSER3Kd3XMzy02oPMDx3BaBzSOm2b5KbrNhVtRHyIVeTG6VL68eyGa2zSP9j75DP7ZLgOm/9CKkl3bQTnRFUcIjfeCBByYv1UHCaRM3GLIbedfVWe/n9cfHjEAvETABHiWaWn0B5ZMNCUDZ3HLLLYlnVsq3VfHkl4dAL1HokSEKUS995SlfjAcvWBCLhkeYMIrYkMT1cpzVIlROTPRoQxzmoDzUT5ko6jlz5iREPy6T37SVl0XwaMYpfrwJASacgnInT54c8BTjqdaGV4i+cD6PQMbkMfbq0K68FRXkJSGMI3ser07eChsykNxkML54o9m4+bjppptSD3jWY00ePLoYpaL2gwsYT506NdmmTZsWRruBi8ItYpz92whUEQFCorgR3W+//dJ3G5APbuyJw0dnESPbLQHWC2aUnd14BwC5I7XKh75QvK6wRGfhyCBWHwcGOgBHBXJIPeghSDLH2ZOPsCzSSASYstEF2fbyP/qeOngSmLdxLu8FOa4F22x8cJ31vsbCeyPQTwRMgEeBrogdCif2MKgIzqNQ87wKyhPv8ZhKEfK4kDhXvbG88847Jy9r8agLgwFRHIloxWXrdxwWQF14ekko4muuuSb1ZnMOQ8EjuZgsr7/++gmph3DGSV5erqO/GAql2IsTE+AiryyhDJSDgs8mCDbn2OIXaahDnnidH2lfNC4iwCNdP9L5uP3gdcoppyRkl5hBbgIIVyG2b7Qb13KDBHHGAIKpkxGoAwK8rIrcZImmdGlWJmPdUXRDr34jB5ST3ShD4VwXXXRRcvNIHo6jV2kPMo8Oy+o1la39L37xiyQ/uku/cRhcdtll6XHyQoRxeoxEgOXgkC7BKRCHQOj4SHv6cd555yVtUN54Kba6633h770R6CcCJsCjQFehCSgcPALZNBrlTd4iAscjsbxH/XrUDgnKJjyEPAqT14PzejmL9mJoUNKEYIwbN26I4uQ85E0hDpSFB0KKVXs8H4QjKKFw4z7gESXFxi0mwPQLryzlaMNTo0f9MYGkHDwsqps916iNwhqyziocbBgXtQfS+MQTTyTH8HhzfdbYqh8iwIQnZFeW2GGHHdI2cDOQPc//wjNuP8aV8uL29+I3GGY97uqH90agSghwM60nMsx9wq/kbZX8ZmWy6HjcL4gmOipvIx8vlFEfsqIVeshLQgfqnHS4ylEd6DicAcT4anUeQuF40sa13IzqnQeIKHqB4zz9EzFWzK+e8Ol/6mB1h0MOOSQ888wzSZU8lSLUDGIdb5TJRigc+kznCIlTeehX3lVhU6q73lc/vDcC/UbABLhNhOM1b3nEl5faUd7xdSLUEDvFrqLwUJB5Sd6FffbZJ/3ABUuPyWOLwtejOK5HOaLAWZmBtpEgkFLqxJ4Sh1bkaeF66lR+2gYJjxPKO14VAxIcx83GBFgKvWgfE0jIdTZfHgGOj9EueXjiMI+4PXl9FQGOr1EfdS2rZdCXvKQbk7j95AMbXlbkZZU4FryT39wQ8eENyotvcvLa42NGoAoIyGOqm1LkGXmFwKKPON4JARapzOqHdv5X7Gw2b/xET/Ic5ykiwMrDi8gQbz58wTERVLVV/49mXGQf8vRSq3LqrPdb9cvnjECvETABbgNRLVOGYsNjKS9k9lI8n1Lq2Zfdsnn5P44TZkUHysdjonVqIT2ELODx5U1jjIUUbtE+q2ipA8JEuAOhBjwaQ7FCuIlhxstKKEbeagkco35ILcQLz4g8OHF/eIwoEp4lwGCC94L23nnnnfFl6W8R+5hACg/KlQc3GwJBDGF2eSWR2TjcQiQ2a2zVAF2TxY7zsTc7jzyTJ6/9Kpu9iEDRmLVzPPbwxGX7txGoIgLoSOkE5jc3yXpSwkourFXbaQxwXkxvEbHNky29cxCfiwkweCLrkHS8reQrIsDHHXdc8pSJdwfQs9IF0iXdEOBWemmkMa+r3h+pXz5vBHqJgAnwCGjirUMBSmkq/ECKLlaiI/3OeitVdfyo8IYbbtDhdHmuvHLxOPD4HQ8uxJKXNvSYLy3gDz8gcfGjyLzyWh3jq0pFpF914XVQHLBII55j2iQCTAwzeVgNQxuPJA877LAE45gAUwZfxSOsQ3FzeQSYMAPGgseD1KPl0oid5n/ibXlkCfkdiQDHpFn9EnnuxAOsMjRXGAMek3JToY2bEo0NfbjuuuvSc9yc7L///sOwUbneG4GqIqAbWOkVSCurzuh/9Bz6ISuT7TxFQ6dw0634Xcg0elllaxUb5WPPzbzO85QInUvi2risGE+eQumdjCICjM5ANyLDvNzWTggEfeRjGtnVK7Krwai97LPn9D99JVSDPmZTHfV+tg/+3wj0EwET4BboQixjJcRvkbS8x2TZvNn/489zqlq8BvISENqgxGNzVi1gNYOf/vSnScwZhEhETgqc/BgbjrPPSzIqhEjwZjblZbejjz46ifvVcZYk46tp9KGIuGfr0rqUkHFdR/+03E8Wj+z/2dAPKXUtFRcT4E6Ue9bYqv3ytPDFPEgohFkbhpXrwI63tHVce/qm8dPcULnaiwBTDx742NvOSzoiwKeffvoQbzx5FRpTVLbq8N4IVAUB5FbklpAA5AfZRRfwYiieYG6YO/UAx/1ER+umVzoHfZeX4ncKaBNPtGhTNrH6y3e+850hup+lI/NigInPVcwtOkGxwa08wNLHWf3X6f/oprz3AlRP3fR+djz8vxHoFwImwAXIisShlPAy6mWomIhA+IjLZGMJGpQk+VGueDY5pvPKm63uhBNOSBUtHsspU6Yk11NOdl1cvJF6ser+++9PiiLml/rIj2cjL0kR5nkx8V7g5cBAZV+8y/O85pXPMdb/pQ3EGws7EVa8vZA7vcQhwomXVsfY6+tJ2TryCDCGi9UVIKAYWbCLPcAYpvg4b0xDKLMGj/9FYGl/N1s8N+I+iAD3o+y4Hv82AlVAgLAA5jrrjvMxF36jC3gsDzkmxIsbWIWLxaFF0lXotPh43C+O42kV8aUcSB7yPlIiNA29I1mkHsKL0HW64dZTF7y0lE1eyK90LzfF6EqVoT16TiS5FQGmjehtvMp6HwCdCVb6H/uhunmKhW3hHPnYlI89XmhsQzYJy7rq/Wx//L8R6DUCJsAFiEKMUJR453iZSYqtiORQjBQOSjX20BZUkcaLSYFm93gTskkvRkD2YkJMuECeEsy2K2tUigwR1+URz2x79L9ePoPo6jrIsAhnXK+85wonAd+XX35ZRQ3bqzwRajLweBIDiJFVgszLSOntb50r2jNmMjTTp09P1icWmWbM9WgVA0s8YEyqycd6xrvssktiDIvmhggwHm7GCMy1cZPEHGPOYFTxjOkcBllrQReVXdQvHzcCY4GAbn7RZcznoptoiBt5kGkRT9ob61DpDGRdv1VeVlci96xcM3HixOSrbIQjoA8Ib4DQ8qU2NpwK5NH1yJ1+Q0hJtI0bcq4nRAJdQsiB8qELeHJDPoUsQX5JkvWRCHCSOfpDWeibWIdLp+olOHQD4WL0J35/JCpmyM88LJWhDnpfbfXeCPQLARPgFsii/FAiJCm2VkSklcLJq0ZeUxQrShXPKKQKJS/imL1O5JGXPvRSCUo8/qpb9ppW7RK5hECrr7pe52LiqXPxHq8KbaAPEDqFPAir2NhhVIRl7EnBSwERzkt57eAxpQwSJJhy1Q7aIoOZV158LMYGo5BNlItxpUwMUF7SmKi/2Tz6mp7a28k+Gx6SrcP/G4EqIIC8EP6gT5bnyS7tlE7IhlfF8igZJg8yIyJIGBfhSshkkSxJB1CebnDz8pIPQsnyjLQ9m9DDO+64Y2496GvFIes66bbREGCcJWpjrEP0pExlaXk3+gEm8Y2D6o/3eVjqvMalynpfbfXeCPQLARPgNpGVYosVVPbSVgonm5f/IdgYgrz4rbz8HMMoZBU/XyNDUfNiHJ6LLHlu1S4+soFC5SWVbJKSzBqpbD4eIVKGVmTQI0Y8GiQthi/shCWPSmmr8ssjnC1f7cgSccXbUTfekrPOOitpR9arlC0v/l+GGKMde1+UpxV2yqP+qH86rj0eLNoax/7qt8gxNw/EEuatyMG1CnlRmd4bgaoiwI29biaLZFc6Aa9tnPLkLUsElV+rqxAKRYgZIQQ4Anh3IibAxBqzIgXntSH3PHmRzlKZ8R7dpPAoyqNcdA2bdDB7ylKSLhBp1fX6X/m0j+ugPVoBiPN5/cbTrDaMRILzsFS9ddD7aqv3RqBfCJgAt4msFFsRyaGYVgqnzWqSbDxyQ0GxykOWzOqraVKCWloML4IepctzojoxRpyDZMXn4vhhlkRjYfbY+8wnPqkn7+U9la0+k4+VDVgmTe1gBQe1i/MKS8hiyaNHzuMFzgsdKTKitCEmwZTB1mqM1G7t8axyDTcAWazJo/7JoOq6eJ/tT3wOD9GJJ5447OU5vUQH6dfYMOY6nt0TWjKSxyeu17+NQBUQyJNdyRRyx6oocdK5WN7yiCDXSO7kGVY55Nf1Ki97Ex8fzwsnQE/Gy7gRgyvCjSyi2+S1pR/c0JLIgx5TSMRIBJgvwXE9G46MOBX1OybBLMuZ137Kqbvej7HwbyPQDwRMgNtEVcq2FbnCg4i3Ie+lg6JqUF4oU1Zw4LEhilsKkbL0WC5ekkfn2WNgSAqnyCp6zkGcMBIozrg8yqcMHoPxAprKhSgfeuihyTFIMsaiKMkoQOLwaGPQKEfeWsgf/+NpUd1ZLCGerHZBPjzY2ZRnROM8F1xwQdp2yqAtiueL82V/YyBkxAg9yUsylDKoeXn0uea8ucGcUFwybet0a1V/Xpt8zAhUAYE82dUSaXk3vLG86WZYRJAQgDhJj7RDgLOeXunqPH0JmY3lVF+4VH2Sc95bkGzzPoL0W9xGtT3rAUbnxbHIeXqv6FrKj1e0IAQs7+a97no/xtG/jUA/EDABbhNVKT88dhBWSI+WDNOedW4hKhDIvOXGUHi8nCFlxUoFsaKNf/NiFUqTN3zlRdB5FJ7CBqgPZUgMG+fxThQlQi0gqHq5QuVBfiHYlEt5Os6e/wlVyK4QQR0oWEIHyKfwBSnt+GU4zscGALLJMRkSypJRzHuZLzaisbeDmFzijbNtpmw2jk+bNi25Scgj8Vq+KM8QC8PYIMt7zp4YZN7Upt1FJJobAjzAEO1XXnkld+MDI7STjTHA6BflpZxszKHa6b0RqCICWdlF9+ndBfRQNsU3pbxoxnrBkg/Jn66RTuZlWzyp6GH2WoKN/JJfdDJhF1ldnSXA6DSRWuqVJ5c6VV+st2gv+YtClKS7Y/1HmdykS09Jd1KH5BtdLQdFfK36zl76K6tL4zz8rqvez/bD/xuBXiNgAtwmolJ+EK5Y8UiJtbuHLInEoXx1HfG7rMWLN0NkTcvxKA+Klq/SkVC8UpA6j8LGY6tEOAOe2PgNZuVlz3HCHOJE2x588MEhy7HpGhZup0wlLfpOvShZzikvhJl4PJYS0gsmfLaZsA4pfx7zK8lQxZ9t1jkZUbw4kEoMWXadTuplhQb6IxKutmgPXhhfiCv1qR3ZOETVyx6cyUcfZYAVt6tytQe3OOV9sUp5O923CkeJ6/ZvI1AFBCS7eiLE2rua+1mPLu2FIOtpkPKxz7sxlk6O8+m35FV6Rcez+ywBpg2sZLH++usPezdD9cUEOA9jSDi6Jg6hiEksOlokW6ETlKMVfrJtBMOixFNDyD24Kg2K3ld/vDcC/ULABLhNZEV6UH4oJDycPLYa7RavdcujNchY/OJD3BwIF+QLUijiG5/nERykUAqTJbniFMffKg+K95BDDin0WMTX4w2hvRgDrsdTKhJIPq33qTe+qY/y43AH8lEOjxzlKVVbsoQRcpuX9KIa5JXHjLGBRPkTOxu3izIg5BisGB/Vq/AIxpA+Fa0+obYzxnitdeOCp5ZHnhhPNsh4bIDUBwwhJJgbgF5t3EDkPWpVnd4bgSohINkVAY7/lzxl28vNM0/AJDN86UwyG+cVIcWrS7noSLyreIDRC+gECDB6Bz2Kc0GhYDzBgSSP5oYytgFxO7K/s44LvtaW1fHouuwxhYtJT7E/+eSTs8UP+R8MeWIUp0HR+3Gf/NsI9AMBE+A2UYX0cLcOYa1aQtFnlaDaSLvxCHC+yOAob6s9/c7zRLD0WEwgeQmOY3kJjzDeFV4oyRLWvPw6hkKHYPKSHoly5syZk3xkRHla7XmsiFFdsGBBsm5nTLSLljZrVZ7PGQEj0B4CyBorL8TrfKOP9NXI9krJz0XZ3KCjH+KEniA0iZtuEnorz9uMLso7HpcV/6bdrPs7ks5AHxLaRB/ZK+QtLivvN/qZJ04Km4r1VF7+VscGQe+36p/PGYFeIGAC3AsUXYYRMAJGwAgYASNgBIxAbRAwAa7NULmhRsAIGAEjYASMgBEwAr1AwAS4Fyi6DCNgBIyAETACRsAIGIHaIGACXJuhckONgBEwAkbACBgBI2AEeoGACXAvUHQZRsAIGAEjYASMgBEwArVBwAS4NkPlhhoBI2AEjIARMAJGwAj0AgET4F6g6DKMgBEwAkbACBgBI2AEaoOACXBthsoNNQJGwAgYASNgBIyAEegFAibAvUDRZRgBI2AEjIARMAJGwAjUBgET4NoMlRtqBIyAETACRsAIGAEj0AsETIB7gaLLMAJGwAgYASNgBIyAEagNAibAtRmqZjT0wQcfDI899lgzOuteGgEjMHAIWIcN3JC6QwOKgAnwgA5sXbu1xhprhL/5m7+pa/PdbiNgBBqOgHVYwyeAu18bBEyAazNUzWjoMsssE9icjIARMAJ1RMA6rI6j5jY3EQEzjSaOeoX7bONR4cFx04yAERgRAeuwESFyBiNQCQRMgCsxDG6EELDxEBLeGwEjUEcErMPqOGpucxMRMAFu4qhXuM82HhUeHDfNCBiBERGwDhsRImcwApVAwAS4EsPgRggBGw8h4b0RMAJ1RMA6rI6j5jY3EQET4CaOeoX7bONR4cFx04yAERgRAeuwESFyBiNQCQRMgCsxDG6EELDxEBLeGwEjUEcErMPqOGpucxMRMAFu4qhXuM82HhUeHDfNCBiBERGwDhsRImcwApVAwAS4EsPgRggBGw8h4b0RMAJ1RMA6rI6j5jY3EQET4CaOeoX7bONR4cFx04yAERgRAeuwESFyBiNQCQRMgCsxDG6EEJDxWLRokQ55bwSMgBGoDQLWYbUZKje04QiYADd8AlSt+zIel1xySdWa5vYYASNgBEZEwDpsRIicwQhUAgET4EoMgxshBGQ8Jk2apEPeGwEjYARqg4B1WG2Gyg1tOAImwA2fAFXrvozHZpttVrWmuT1GwAgYgRERsA4bESJnMAKVQMAEuBLD4EYIARmP1VdfPbz11ls67L0RMAJGoBYIWIfVYpjcSCMQTIA9CSqFgIwHe4dBVGpo3BgjYATaQMA6rA2QnMUIVAABE+AKDIKb8B4CsfH46Ec/Gh5//PH3TvqXETACRqDiCFiHVXyA3Dwj8AcETIA9FSqDwOWXXx4wHp/97GfDxz72seT39ttvX5n2uSFGwAgYgVYIWIe1QsfnjEC1EDABrtZ4NLo1P/rRjxLSu+2224Yzzzwz+Q0hPvbYYxuNiztvBIxAPRCwDqvHOLmVRgAETIA9DyqBwOGHH54S3vPOOy9p0/HHH58eW3/99cPChQsr0VY3wggYASOQRcA6LIuI/zcC1UbABLja4zPwrXKaf0kAACAASURBVHvkkUfC5ptvnhJdjEiceBFOMXXLLrtsOOqoo8KSJUviLP5tBIyAERgzBKzDxgx6V2wEukLABLgr+HxxJwi88MIL4aSTTgrf/OY3U3ILyZ0+fXpucVOnTg2f+9zn0rwf/OAHw7hx48Jxxx1nMpyLmA8aASPQTwSsw/qJrss2AuUgYAJcDs4DXcvbb78dfv3rX4dnn302/PKXvwz3339/mDt3bpgzZ04466yzwgEHHBA23XTTsNZaa6Uvt8mr+5nPfCbstdde4d577x0RoywRVhlrr712mDhxYjjhhBPC+eefH2bPnh3uuuuu8NRTT4XXX399xHKdwQgYgWYjYB3W7PF375uJwMAT4FdffTVceeWVYd999w3bbLNNGD9+fFhnnXWSlQY+/vGPhw984AOpZ1GEyvtl+orJJz7xibDeeuuF008/vaOPXUByd9hhh7Dmmmv2tZ2eB+/OA2QEWWF1DmQHGUKWkKnrrrsuvPbaa5XTnpb7/spw02XDOszza6xkoI76uHIG4g8NGkgCbIJUrnL6kz/5k0B87l/91V8FDMNKK60UVltttfCFL3wh4J2FLJ144okJWVq8eHFPZcFEp9yxLlL6jPNuu+0WLrjggp6O72gKs9xXYy4UzZEqH7cO89yp8vwcbduqoI9Ho7vHKu9AEeCLLroofPnLXx7mFfQj8rGaXq53EBAgjIRwEsJKCC+BaBJuQtgJHuGsckYGkcWykuW+LKRdjxEwAmONQNX18VjjM5r6B4IA33rrrWGjjTZKDbFfkhrNFHBeI9AdAi+99FKybvN3v/vd8KEPfSiVQ2QS2exXstz3C1mXawSMQF0RGCt9XEe8ak+A8UbJA+Vlsuo4Bd3mQUIA5XvEEUcEbkIll8hor5PlvteIujwjYAQGDYGy9HFdcas1AY6NoD+UUNcp6HYPIgILFiwI6667bl9IsOV+EGeM+2QEjEC/EOinPu5Xm8sot7YEODaC/lRuGVPFdRiB0SMwZcqUnpJgy/3ox8BXGAEjYARAoNf6uO6o1pIA8yWwFVZYITGs22+/fd3HwO03AgONADJKOAQy281X/Cz3Az1N3DkjYARKQKBX+riEpva9iloS4MMOOywxqB/96EfD448/3neQXIERMAKdI4CMIquQYGS302S57xQ5X2cEjIAReBeBXunjQcCzdgT4zTffDCuvvHJiTCdNmjQIY+A+GIGBRwBZhQAju8jwaJPlfrSIOb8RMAJGIB+BbvVxfqn1O1o7AswHFTCkq6++ekdfEavfELnFRqD+CLz11luJzCK7yPBok+V+tIg5vxEwAkYgH4Fu9XF+qfU7WjsCvO222yYEeLPNNqsf2m6xEWgwAptsskkiu1tvvfWoUbDcjxoyX2AEjIARKESgG31cWGjNTtSOAG+44YaJEXX4Q81mmpvbeAQOOOCARHZZsnC0yXI/WsSc3wgYASNQjEA3+ri41HqdqR0BXnPNNRMjeskll9QLabfWCDQcAS1h9vnPf37USFjuRw2ZLzACRsAIFCLQjT4uLLRmJ2pHgLX82aJFi2oGtZtrBJqNwP3335/cvC6//PKjBsJyP2rIfIERMAJGoBCBbvRxYaE1O1E7AsxLNGxORsAI1A+BTuW30+vqh5BbbASMgBEoB4Gm69XaMcmmD1g5YuFajEB/EOhUfju9rj+9cKlGwAgYgfoj0HS9agJc/znsHhiB2iDQqcLt9LraAOOGGgEjYARKRqDpetUEuOQJ5+qMQJMR6FThdnpdk7F2342AETACrRBoul41AW41O3zOCBiBniLQqcLt9LqeNt6FGQEjYAQGCIGm61UT4AGazO6KEag6Ap0q3E6vqzoebp8RMAJGYKwQaLpeNQEeq5nneo1AAxHoVOF2el0DIXaXjYARMAJtIdB0vWoC3NY0cSYjYAR6gUCnCrfT63rRZpdhBIyAERhEBJquV02AB3FWu09GoKIIdKpwO72uojC4WUbACBiBMUeg6XrVBHjMp6AbYASag0CnCrfT65qDrHtqBIyAERgdAk3XqybAo5svzm0EjEAXCHSqcDu9roum+lIjYASMwEAj0HS9agI80NPbnTMC1UKgU4Xb6XXV6r1bYwSMgBGoDgJN16smwNWZi26JERh4BDpVuJ1eN/CAuoNGwAgYgQ4RaLpeNQHucOL4MiNgBEaPQKcKt9PrRt9CX2EEjIARaAYCTderJsDNmOfupRGoBAKdKtxOr6tEp90II2AEjEAFEWi6Xq0dAa7gHHKTjIARMAJGwAgYASNgBGqEgAlwjQbLTTUCRsAIGAEjYASMgBHoHgET4O4xdAlGwAgYASNgBIyAETACNULABLhGg+WmGgEjYASMgBEwAkbACHSPgAlw9xi6BCNgBIyAETACRsAIGIEaIWACXKPBclONgBEwAkbACBgBI2AEukfABLh7DF2CETACRsAIGAEjYASMQI0QqD0Bnj9/fpg8eXIYP358WG211cJyyy0X3ve+9wWtb+f9MsZiGWNgOfAc8BzwHPAcaMYcgAPBheBEcCM4ElzJaSgCtSTAL774YjjooIPCKqusYnJncuc54DngOeA54DngOeA5MMIcgDPBneBQTiHUigC/8847Yc899wx/+qd/mk705ZdfPkyYMCFMnz49zJ07NyxZsiQsXbrUY2sEjIARMAJGwAgYgcYhAAeCC8GJ4EZwJLiSngDAoeBScKomp9oQ4BkzZoQVV1wxHcBx48aFWbNmNXns3HcjYASMgBEwAkbACLSFAJwJ7iQiDKeCWzU11YIA77PPPumAfeUrXwnXX399T8bryed/E66Z+0Q4Zda94eDTbwu7Hn9D+PGRs8N2U7wZA8+BduYA8oLcID/IEfKEXDkZASNgBIxANRGAQ8GlRIThWE1MlSfAm2++eTpIEydO7HqM3nx7aWKkMdjtGHjnMRH0HBj9HEC+IMPIm5MRMAJGwAhUDwE4lUgwXKtpqdIEWOT3/e9/f7j44ou7HhsMMt4qEZo9pt4Ups5cGGbe9nS4ZdHL4b6n3ggPPfdOePh5b8bAc6CdOYC8IDfID3KEPCFXkjHkDblzMgJGwAgYgeohALeCY0GEm0aCK0uAFfbAwMyePburWcMj2SPOvTM1ypPPnR+unPecia6JvudAn+YA8oWciQgjfw6N6EqN+WIjYASMQF8QgGOJBDcpHKKSBJigbLnlu/X8zn3guTSud79TbjXx7RPhacdb6DzN8ypDhJE7iDDxwsijkxHIQ+CNF+4NL941LTx19dbh0Z9/LSw67Z/CwpM+HRZO+5Q3Y+A50M4cOOnTidwgP8jRi3dPC8hVOwmuJd7VlBfjKkeAWZZDqz10G/N7091Ppx4oHs06vKF5BMyke+zHHLlD/uQNRi6djAAI/O7t1xLSi8E20TXR9xzozxxAviDDyFurpJhgOFgTlkirHAFmbTruQnhDsZuEp0kG9+zZj/pRtz2/ngNjPAeQQ8mkPcHdaLfBuBZvb+Ll/YNn66HT1wjPXPGD8ModU8Ibiy4KS5+YE8LieSE8M9+bMfAcaGcOLJ6XyA3ygxwhT8iVbiyQN4hwq6TVIeBig54qRYD5Ook+ctHNUmfEGmo5M5PfsfcA2gvrMdAcEAlGPh0TPOjmJb9/PJJ9bMZ/pUb5yYs3CL9ZMNUEpx2C4zyeJx3MAeTriRkbpDL32CX/VRgaAffCCQkXG/QvxlWKAPOJPoBnoeZukl5447GrDK/3JmGeA9WYAwqHQE6dmoXAKw9fksb1PnrOV0x8OyAz9oj7iUCncwAijNwlHuGTPh2Qx7ykj2XAyQY5VYoA851qCHA3X3hjySUes/LijWN+q0F4TDw9DvEcQC71YpyXSBtk8zK0b79aeFbqgeLRrMMbTOQ6JXK+rou5s3heEhqhsAjkMpvgYHAxONkgp8oQ4Pnz5yeA873qThOL7mudXy9zZtIVky7/rtZ8QD65UUVe/bGMTjVefa5LPL9/iPV94YY9/Rjbnl/PgTGeA8ihSHCeJxguBgmGmw1qqgwBnjx5cgL2hAkTOsZa3l/WHzXhqRbh8Xh4PLJzQOsE2wvcscqrxYXE/Go5M5PfLjx3Y0yY7HUdvLFLSfBJnx4WEwwXgwDDzQY1VYYAjx8/PgF7+vTpHWOtzxvb+2uylSVb/r96c0JeYOTWaXAR0AtvSdiDSZw9n54DlZoDyCWeYF6MixNcDAIMNxvUVBkCvNpqqyVgz507tyOseaOcR6p8htVkp3pkx2PiMcmbA/pssleE6EjtVf4iljrDuPLijWN+B8+DaK/wAIzp4nnpi3HxEmlwMQgw3GxQU2UI8HLLLZeAvWTJko6wVviDV34w0cojWj5WzXmhFSEcBtGR2qv0RSy6r3V+vczZABAle24r5bnt5c0H8smNKvKqj2XAxSDAcLNBTZUhwO973/sSsJcuXdoR1qfMujfxAM+87Wl7gMf4gwcmm9Ukm1UcF+SVJzfIr9NgISDvL+v89tJYuyyTac+B3s8BrRMsLzBcDAIMNxvUVBkCDNBsnSbF/96y6GUTYBNgz4GazAHkFQLsOOBONV91r9Pnje397T1ZMQE0pr2eA/ICI7dK3fIylVPVfeeMs8c96hZoLX9231NvmPzUhPxU0SPpNpXrvUZetRxaj1WKixtDBJKVH6Z9KvkMa68Ntcsz+fMc6M8c0GeTkV9St7xsDFVQW1UPDAHWp4/98YtyCYwJo/HuZg4grxBg5NdpcBBQ+INXfugPUTEBNK79mANaEUJhECbAJenkboHGiLJ1Y4x9rcmc50D5c0CyW5KqcTUlIPDU1VsnL9W8cscUx//65THPgZrMAeSVl+GQX1K3vKwEVdNVFQPjAZYRNYEpn8AYc2PezRyQ7HalyXxxpRBQ/O8biy4y+akJ+emHR9Fl1stTjbwmyxb+IQ7YBLgktdot0DKi3RhiX2si5zlQ/hyQ7JakalxNCQho+bOlT8wxATYB9hyoyRxAXrUcGmqiW15Wgqrpqgp7gP3CmMNGPAfGdA6YAHelwyt5sT597I9f1MsDaI9tw8dr8byEACO/JBPgktRrt0DLiNqDV74Hz5gb827mgGS3JFXjakpAAC8SmwlVwwlVTTyfnqfvzdNUdk2AS9CUf6jCBNgkqhsS5WvrO39MgMvTs2XVlBpREyDfBHgO1GoOpLJrAlyWuuze1S4jaiJUXyLksWvm2El2y9M2rqnfCKRG1OSnVuTHntD3PKFNxSKVXRPgfqvJ98q3B7iZ5Mek1+NuAvyeHhyUX6kRNQE2AfYcqNUcSGXXBLg8dWwCbCJkMtzMOWACXJ6eLaum1Iia/NSK/DTV6+l+v+f5TmXXBLgsdekQCJO/ZpI/j/u7X4KDBDsNDgKpETUBNgH2HKjVHEhl1wS4PIVsD7AJoMlgM+eAPcDl6dmyakqNqMlPrciPPaHveUKbikUquybAZalLe4BN/ppJ/jzu9gCXp2XLqyk1oibAJsCeA7WaA6nsmgCXpzDtATYBNBls5hywB7g8PVtWTakRNfmpFflpqtfT/X7P853KrglwWerSHmCTv2aSP4+7PcDladnyakqNqAmwCbDnQK3mQCq7JsDlKUx7gE0ATQabOQfsAS5Pz5ZVU2pETX5qRX7sCX3PE9pULFLZNQEuS13aA2zy10zy53G3B7g8LVteTakRNQE2AfYcqNUcSGXXBLg8hWkPsAmgyWAz54A9wOXp2bJqSo2oyU+tyE9TvZ7u93ue71R2TYDLUpf2AJv8NZP8edztAS5Py5ZXU2pETYBNgD0HajUHUtk1AS5PYdoDbAJoMtjMOWAPcHl6tqyaUiNq8lMr8mNP6Hue0KZikcquCXBZ6tIeYJO/ZpI/j7s9wOVp2fJqSo2oCbAJsOdAreZAKrsmwOUpTHuATQBNBps5B+wBLk/PllVTakRNfmpFfprq9XS/3/N8p7JrAlyWurQH2OSvmeTP424PcHlatryaUiNqAmwC7DlQqzmQyq4JcHkK0x5gE0CTwWbOAXuAy9OzZdWUGlGTn1qRH3tC3/OENhWLVHZNgMtSl/YAm/w1k/x53O0BLk/LlldTakRNgE2APQdqNQdS2TUBLk9h2gNsAmgy2Mw5YA9weXq2rJpSI2ryUyvy01Svp/v9nuc7lV0T4LLUpT3AJn/NJH8ed3uAy9Oy5dWUGlETYBNgz4FazYFUdk2Ay1OY9gCbAJoMNnMO2ANcnp4tq6bUiJr81Ir82BP6nie0qViksmsCXJa6tAfY5K+Z5M/jbg9weVq2vJpSI2oCbALsOVCrOZDKrglweQrTHmATQJPBZs4Be4DL07Nl1ZQaUZOfWpGfpno93e/3PN+p7JoAl6Uu7QE2+Wsm+fO42wNcnpYtr6bUiJoAmwB7DtRqDqSyawJcnsK0B3jwCeC9T/wmXHnTfeHOB58PvSB+cxb8csRyqGvR4jeSfAuffi089NzbI17Ti7a5jPbnsz3A5enZsmpKjajJT63Ijz2h73lCm4pFKrsmwGWpS3uAm0CYjjn53MCNzqdXWjkseubNrojo7QufScr6+Cf/Ntz16K9yy9ppj4lJnktn3xnYqHvtdb4R7nvy1dz8TRiDKvbRBLg8PVtWTakRNQE2AfYcqNUcSGXXBLgsdWkCXEVi0ss24Xld95v/mZDQfQ85umsCevRJ5yRl/e2nPhMeePr13PK++/0fJnlmXjsvXH/nI2G5//nh5P+v/p9vpl7hXvbRZbXv9Y2xMgEuT8+WVVNqRE1+akV+mur1dL/f83ynsmsCXJa6NAGOCcEg/p59+4MJ+cQLe+0dD+US1nb7/eCzb4XPff5fkvKOnHZWYVn/b/OtkzwXXXlbkuea2xalbfjehK0cDvF8Z4S13XFqN58JcHl6tqyaUiNqAmwC7DlQqzmQyq4JcFnq0gS4XbJQ5Xyzrl8Q/vpjK4S/X/WzQ7av/PvXUuIJAf5fq/xj+KfPfWFInuw1+n+jjScECG/c70uumZuUR113PrhkyLk4nzzAM66+I81DDDJtOPy409Jj8TX+XT4pNgEuT8+WVVNqRE1+Kk1+3nri9rB4wZXh5UU3dN3OJ++8fMQyXlp4XXjnyblJPur+/eJ5I15j7+x73tkysEhl1wS4LHVpAjwIxGvSUdOHEF2IZrfbF/7lK0MIMKEUIrb7HHxUQmKJAZ676LlhhFYe4KlnXBxuuuvxcN6sOYHQiTX/9d/CN8ZtGKadOWPYNYMwDnXrgwlweXq2rJpSI2oCXGmCd8lpUxIdvdKKn0yJaScka8m9s5NyVvzk8uE3D92Y2+eDd98mybPg6nMCG7Zhvf+9Vnjjsdty83fSDl/TPVlOZdcEuCx1aQJcN9KS115eTLvshruSlR7wtLJdfesDyUtvKDteWPvFnLuHnCcsgU354z0e5TseeHYISaU8yiKel/pox5bb7pwc46W3C6+4JfHu/ujHu6Uxv0UkfLf9DhtSdl6ffKz/HmET4PL0bFk1pUbUBHjMyN2zd10d7pl9fuG28IYLw9XnnZDoTnTkRdMnhwfmXFSY/95rzw9vP3FHbn/OnzopKQciXZRnq02/neS565pzw2O3zwof/p9/mfz/rXW+3BX5NuntnvTGGKayawJclro0AR5UoqXVF1Cw08+ZNYRw4s09/7IbE89sO6tCxN7fw445JSmLl9tEiPefdGzyO4/wEnax4Xe+H/aeOCXgESaMolX4xKCORxX7ZQJcnp4tq6bUiJoA5xLGmHD06/epU/Yr1Id5OrKdY9N+utew/vzu6TvDl9b4p6Suc088dNh59W/bzcYneeZefmaS5+FbLknbt833N3I4REVkJZVdE+Cy1KUJcBWJSbdtuuexV5J4XxRrsvJCZukzzuMVxpvbDhk97fzLU4V5zqXXh7Munh2++X83So5tvvVO4e5fvhz+c/wmCck9/cKrwg677Z+c68WqE91i4euLPckmwOXp2bJqSo1oRYy6SFiT9lede3zY8FvrhC2++59ht22+H3bfdrPww//3X8n/3/6PdZJj22/xneR/8mw34b/DuHXXTnQmv7fc+D+Ta7iO81yDpzeL4fyrzk6uWeGjHwm/euD6YeeVXx7geVeenebB44x9OOOYiekx5fe+t57ddvFMZdcEuCx1aQI8iARJoQkoOEIXsn1kPV48s+0QYPKyfnCel+LPPrhsyPsoxomnv6tcDzpi6rC6+TgGIRR4lbPt8v/FZLUf2JgAl6dny6opNaImwJUgdrNOPyoce9Bu4bm7rw43X3pqWPaDfxYm7fXjEL+49tqjt4QJ//1/Ex176c+ODHh2T5myX7jw5MML+8BLbCK2xxy0a5KPGOAX779u2DXyAFP20/OvSNoBof7qv66RkOuZPztq2DXtkjbn6x1ZTmXXBLgsdWkC3A9iMZZlnvCzC1OyevCUabkkczQEmL6IUPMC2w+22yUtf48DDs8tXx/e2GanvQLxxCyZtvUOeyQfw4BIQ5xvufep3GvHErum1W0CXJ6eLaum1IiaAFeC1InY8vKZ4nXlTMCze84JhwReYOPYFz/3j8mqEApRIEZ36VN35vbjoZtnJNcQz8uLcBDRXbfeNDnGS2+3X3Z64t3dY7sJacyv6s3uD99nh9w6TG57R27bwTKVXRPgstSlCfAgkR4tU4aC+6/vbDpkFYe4n4RA4NXFA5x92S3Op99xnDArOlA+IRSEPpAHL/AZF10d8Pj+9yZbjvgSHNdrjWDV4X253l/wNgEuT8+WVVNqRE2AK0Hq5H1V/C1E6NaZP0t0aExEIcFapkzkFgKMNzhLnmLv78+OOiA5z8ttlAchPv6Q3YeVr7pWXfkzibf5qAN3DniECaNoFT6Rrdv/948Up7JrAlyWujQBHhTixSoOKDlCG9gr/EDeWCnAdvZ4erNrAIPTgkdeSogvZZw949rUg6tlz/LKZumzH/541zDlxDPCxVfdnqw8QRjEoOBe536YAJenZ8uqKTWiJsDDiONYkLeYALP+7vUXnpSGLmT15WbjxyVrA49EgIkx1rU3zjglKXP8uHWTYztvtUl49eGbwqYb/UeA5M4+f2o4cJetknOEYowFBq6zPdKcyq4JcFnq0gS4zgRGbYdYSiFqrxfQFI+r4+3s//mL/xpiry/1xCtBENqgum+++4kw7r++m3xuedd9J4WTzrwknDvzhsQLjIcZ0qy8eI85xl7HvC/f8yvMTYDL07Nl1ZQaURPgSpA9EeA5F09PV2xAB3/9q19KiCve3DuvOCus/S//nOhwPMF3/OKM5HeeB5i1e1dZacVh+p4yiS+OY4tFPLXm8EmH7z0ME7zOhFD4wxjtkVRh2o99KrsmwGWpSxNgkYG67uPPDK/6T/8cvv+DHyfKUQSYfkFSb73v6WS77f7F4aqb70/yQEavuOnewDGdV94sHgccdlyqdI875fyw54GT01CH7Lq+Dzz9eqAtKOXLb7wnIbvE/FIfx1g5Ilu+/y+fCJsAl6dny6opNaImwMPIXj9Iy0hligCffvSBKQHGSwshJvzgpktOCazOoHWBWc+Xl9/Qk3kEmPoU66sVJcjLdsR+O+X2+efTDkvO77PjlslawyyZttf2mycfw+A6iDNrF4/UF5/vL0lOZdcEuCx1aQJcd+KFZ5YlyIjJ5ctsrLWLUosJcLaP8UtwsYc2m0//jxRGgddXebXXi3OQ5ZgQ/+2nPpP8r3zel098hbkJcHl6tqyaUiNqAlwJQqeX4ERSR7Nf6wufzX0JLn4xjpUlKBPPMaEPkFS8wNf+fGrA48vya/rwRau64xhlE93+Et0ifFPZNQEuS12aAIsM1Hm/8OnXAqSWPoistkuA21kH+MIrb02ULAqUFRyI+YXY8jGMouXMFHrx96t+Nvzvr/1Hcj0e4BsXPDaMLNcZ+zq33QS4PD1bVk2pETUBrgQBJp4XjyteXTa++nbkAT9J9CGeV9bhvfiUyel55WN/5TnHtezDrx+8MV1B4oaLTk7zyuucR3hZ+oz1hc8+/uAk9IIVJ/TyXREx8/FyCHEquybAZalLE+A6E5i8tveDAEOwecnuzgefb5u8QqwV8iBFPPO6+Qlh5sW4KVPPLCTPef3ysd57ik2Ay9OzZdWUGlET4JQQjgWBY23fRTdelHx6mLV3tbEeMC+moRPx2j5yy6XpOeWJ95TB+r7ZPsQrQRDaoPOLF1wZNt7gG2GD9f49/HTv7QPrEBNmgReYDdKsvHiPOcZex7wvh+zm4ZzKrglwWerSBHjQiFU/CHARRtfe8VDy9TdWech6gk8597LUa4yy50U9ytFKEpDjdrzPRXX7ePeE2AS4PD1bVk2pETUBHlNSpy+t6ea/mz3LpmUJ0wmH7pHqV7zFU/b/SRrqkF3X9+0n7ghr/NPfJ/nvv/6CpCxifhUaQUxytnz/Xz4RTmXXBLgsdWkCPGhEqh0CTEwuy6X99cdWCPc8/uu2vLqsCsEX3FjBYcc9Dhzi3aUsLZt23dyH088kx0pfX6RTOEXRUmuDNh5V7o8JcHl6tqyaUiNqAjympE5LmRHmwOeM9cnjeAUH4oP5JHKsJ3nBTflFULPxuXqpLb4u/o3XN0tg9eIcZDkmxLx0x//Z/P7fBLifOmuZfhY+mrIlOKO5Js4rI1plQ9+ktokAsw4whHXbn+wdWJ4s3nbYbf+EwBLPu93O+ww5R74ddj8gHHj4CalXd6c9Jg5R0poz7LfY5ifJRy1+Mefu8N3v/3BIvq133DN5QY98eHxZHm2jjSckeX567KltEe8mjV3ZfZXsxvLs3/VGwAS4fOKSRxZFgFmfN15ijJhf9GEctnDvtecnx1b46EeGhCgoljdLgLVMGuVAsMkHseVjGHFdcbu0FNrq//i/wrh1107qg2A/Ne9yk9+K3CymsmsPcHlKGCFi6zTJiJZtvF1f/iNwEWA+PHH0SeckY6sxHs2eL8VpLWC8tbqW+N29DzoyzLx2Xvri3Y932Tc90mqHWwAAIABJREFUTz6WQOOrdIwRX53TxzlUBmTYn0LOH78y57Vkt1PZ93XVQyA1ohUx6jEJa9JvEeD4c8Z8cQ3SCWnNrte7/0/edR7E4QhFBJgPahBi8dLC69omr6pbOpj93bPPSwgzL8bxSeYi8tykcRvLvqayawJcnmKVQHRao4xomYbbdRWTp8nHv/uZTVaBIOwATysvnI12+/kvbko9tBdcfnOyXrA+fZzFn1helmH73oStUuIb55n30AtDwiKmnTkjLTvO59/F49oPbCS7ncq+r6seAqkRNQFumxz2g/TEBJjPGUMu8fpib3n5jZfbWPuXpcp2/MHGQxwIitPdatNvJ8ezHuCi9j5668zk62+s8pAls1ec/d467rSBj29QjlaSgJj7k8hj+/QglV0T4PIUqwlwuaSjH0QmLpMY3FPP+0VCWOPjVfgNUZ7/8Ismv89XY86ZAJenZ8uqKTWiJsCVIcCQUZYdk60daU/YBKS5yAMMcWUtYL7gxgoOB+22dfpCG2WvuvJnkuvJ98vbZgZ9JjmuF4LOeYVT8FEN6uSYt7HBIJVdE+Cy1KVfgqsCMXQbqkEImzYOJsDl6dmyakqNqInMmBK5rAf4vut+nhBgwh8gpHhpTzty/+SDFeR9ZdGchNDiHd7m+xsla/NuN+G/cz3AB+++TSGZ3mWrTQIeY+qTB1nEd+8dtgibbvTumux4fFkejRfuOM+X6kx8x4b4CvdUdk2Ay1KXJsBNIz3ur8m25oAJcHl6tqyaUiNqAjymhE4EOPasvvHYbSO2CVLK6hA7bPndlOTeNuv0IddRpkgt8btHT9wl3HXNuUHlK55YeVgCjc8uQ7R++8jNiYdY59hDhv0p5LElv4xNKrsmwGWpSxNgkQHvTQybNgdMgMvTs2XVlBpRE+AhpFFetrL2Wge46HPGRe3QdSKokFNCHeL8EOKFN1yYfvo4PsdvYnnlSRbxjfO8vOiGIWERM382fNm0OL9/l0OOU9k1AS5LXZoAN430uL8m+poDJsDl6dmyakqNqAnwENJYNonjS3ALrj4nWa1hNHXzWWJegrtn9vmB5dHyvgI3mvJa5YUoE3rRKo/PlUN+wTmVXRPgstSlCbDIgPcmhk2bAybA5enZsmpKjagJsImd50Ct5kAquybAZalLE+CmkR7310Rfc8AEuDw9W1ZNqRE1+akV+bGntTxPa1WxTmXXBLgsdWkCLDLgvYlh0+aACXB5erasmlIjagJsAuw5UKs5kMquCXBZ6tIEuGmkx/010dccMAEuT8+WVVNqRE1+akV+quqVdLvK80ynsmsCXJa6NAEWGfDexLBpc8AEuDw9W1ZNqRE1ATYB9hyo1RxIZdcEuCx1aQLcNNLj/proaw6YAJenZ8uqKTWiJj+1Ij/2tJbnaa0q1qnsmgCXpS5NgEUGvDcxbNocMAEuT8+WVVNqRE2ATYA9B2o1B1LZNQEuS12aADeN9Li/JvqaAybA5enZsmpKjajJT63IT1W9km5XeZ7pVHZNgMtSlybAIgPemxg2bQ6YAJenZ8uqKTWiJsAmwJ4DtZoDqeyaAJelLk2Am0Z63F8Tfc0BE+Dy9GxZNaVG1OSnVuTHntbyPK1VxTqVXRPgstSlCbDIgPcmhk2bAybA5enZsmpKjagJsAmw50Ct5kAquybAZalLE+CmkR7310Rfc8AEuDw9W1ZNqRE1+akV+amqV9LtKs8zncquCXBZ6tIEWGTAexPDps0BE+Dy9GxZNaVG1ATYBNhzoFZzIJVdE+Cy1KUJcNNIj/troq85YAJcnp4tq6bUiJr81Ir82NNanqe1qlinsmsCXJa6NAEWGfDexLBpc8AEuDw9W1ZNqRE1ATYB9hyo1RxIZdcEuCx1aQLcNNLj/proaw6YAJenZ8uqKTWiJj+1Ij9V9Uq6XeV5plPZNQEuS12aAIsMeG9i2LQ5YAJcnp4tq6bUiJoAmwB7DtRqDqSyawJclro0AW4a6XF/TfQ1B0yAy9OzZdWUGlGTn1qRH3tay/O0VhXrVHZNgMtSlybAIgPemxg2bQ6YAJenZ8uqKTWiJsAmwJ4DtZoDqeyaAJelLk2Am0Z63F8Tfc0BE+Dy9GxZNaVG1OSnVuSnql5Jt6s8z3QquybAZalLE2CRAe9NDJs2B0yAy9OzZdWUGlETYBNgz4FazYFUdk2Ay1KXJsBNIz3ur4m+5oAJcHl6tqyaUiNq8lMr8mNPa3me1qpincquCXBZ6tIEWGTAexPDps0BE+Dy9GxZNaVG1ATYBNhzoFZzIJVdE+Cy1KUJcNNIj/troq85YAJcnp4tq6bUiJr81Ir8VNUr6XaV55lOZdcEuCx1aQIsMuC9iWHT5oAJcHl6tqyaUiNqAmwC7DlQqzmQyq4JcFnq0gS4aaTH/TXR1xwwAS5Pz5ZVU2pETX5qRX7saS3P01pVrFPZNQEuS112T4B/fOTsgCF96DkTCxEL7z0Xqj4HkFfkFvl1GhwEUiNqAmwC7DlQqzmQyq4JcHkKeZlllglsnaZdj78hMaT3PfVGqLrRd/tMTD0H3p0DyCsEGPl1GhwEUiNq8lMr8lNVr6TbVZ5nOpVdE+DyFHK3BPjg029LDOkti142AX7eBNMEsx5zAHmFACO/ToODQGpETYBNgD0HajUHUtk1AS5PIb/vfe9LPMBLly7tqNJTZt2bGNKZtz1tAmwC7DlQkzmAvEKAkV+nwUEgNaImP7UiP/a0ludprSrWkl24GI5JuNmgps5jDnqMyHLLLZeAvWTJko5KvmbuE4khnTpzoclPTciPvbT18NL2c5yQVwgw8us0OAgsPOnTAUMaFs8zAfRNgOdAXebA4nmJ3CK/cDEIMNxsUFNlCPBqq62WgD137tyOsH7y+d8khnSPqTeZAJsAew7UZA4grxBg5NdpcBBYdNo/JYZ06RNzTH7qQn7czsbPVeSVG1fkFy4GAYabDWqqDAEeP358Avb06dM7xlpxwFfOe84EqCYEqJ/eRZddbQ8zcur4347VXaUvfPTnX0sM6RuLLmo8qajqo263y+EO2TmAvEKAkV+4GAQYbjaoqTIEePLkyQnYEyZM6BhrhUFMPne+CbAJsOdAxecAcurwh47VXaUvfOrqrRND+sodU0yA7Vn1HKjJHEBeIcDIL1wMAgw3G9RUGQI8f/78BOzll1++Y6zffHtpspwSRtVe4Gp7/+ydbfb4yPvL8mfIrdNgIfDiXdMSQ/rMFT8w+akJ+cl6A/1/8zzEyCsE+MW7pwW4GAQYbjaoqTIEGIBXWWWVBPBZs2Z1jLe8wPudcqs/ilFxD6BJcDNJMB+/QD7t/e1YzVX+wjdeuDcxpA+dvoYJsAmw50BN5gDyCgG++uITEi4GJxvkVCkCfNBBByWgjxs3rivMjzj3zsS4ekWIZhIsE+tqj7tWfkBOnQYXAcUB/2bBVBOgmhAge32b5/XVmCOniv+Fg+H9hZMNcqoUAX7xxRfDn/7pnybAX3/99R3jzhvl+jTy2bMfdSyoPcGeAxWZA8gjnl/k0ys/dKzianGhwiCevHgDE2ATYM+Bis+BJ2ZskBDgOy7eLeFgcDE42SCnShFggN5zzz0T8L/yla90hfvcB959wxxjaxJcbY+gPbbNGB+RX2QS+XQabAR+9/ZryXJKeJXsBW6uZ1EeRu+rOwfk/WX5s//z719OOBhcbNBT5QjwO++8E1ZcccVkACZOnNgV/jfd/e5XpjC4PHYl9tBkyxh4DpQ7B5A7hT0gi8ilUzMQkBf40XO+4o9iVNwDaIJaXYLa17FZPC8gn9yonn/ERgn3goPBxQY9VY4AA/iMGTOSQSAG5eKLL+5qDPA0KRyCF2+8OkS55Mdks9l4I2964Q05tOe3K3VWy4sfm/FfiXH1ihANJVgm/pUO/9DKD/NO/WrKu+BgTUiVJMAAv88++ySD8f73vz/Mnj27q7Eg1lAvxuGBYv1RE+FmEzMT8/6OP/KldX6ROeTPMb9dqbHaXpysCPGHTyO/cMOelSYDffW0mQh67Cs2B5BHPL98+ni1T/1ZwrngXk1JlSXADMDmm2+ekuBuPcGUxxJprDuKQWbjM6w8mp1529PhlkUvh/ueesNhEhV5WcoEtb8EtVf4Et6A3CA/yBHypM8bI2PIG3Ln1GwEXnn4kncN7bRPBZNge4J9ozH2cyAlv9M+Fcb9y18kXAvO1aRUaQLMQIgEEw7RbUww5bHoPgZZn00WGfb+3ZsC42AcejEHkC/kzB+5aJI5ad3XXy08KyXBSTjE4nn2CFbMI2hiOvbEtO9jsHheUNgD3t+NvvKhRpJftFXlCTCNVDgEJJjVIbpZIi1W0TySxUifMuvehBDjrVK8cC9IgMswmRz0OYC8IDcQXuQIeXKoQ6xl/DtGIPEE/yEcghdvvDpEAwiXSX5lbvSQN73wdv+0T4VvfuGDjQt7iPVRLQgwDSYoW6tDQIRZqLmbL8bFIPi3ETACRsAIlIMAMcF6MQ4PFOsEmwibCPfd89lgIo58aZ1fZO7s3ZYPf//J/5Fwqqa88Jan3WpDgGk8y3KwNp0+lgER5nvVEyZMCNOnTw9z584NS5YsCUuXLs3rq48ZASNgBIxARRBgiTTWHU1ewpn2qcBnWHk0+8odU8Ibiy4KS5+Y46XTGkzaTIg7uClaPC+RG+QHOUKe9Hlj5Oz2o/42bLbuXyQcCi7VhKXOWqm7WhFgdYSvk/CJPr5TDQn2Zgw8BzwHPAfqNwc+8D/+OExY9y/Cpft9PCXCIsTef8qYsEKBt64xQL4gvquvtkrCnQb9C2/iiiPta0mA407Nnz8/TJ48OYwfPz6sttpqYbnllgvve9/7TIp9Y+A54DngOVCjOcAjWcjwkT/464QQ4626f6oJkAmg50C7c+C+qe96eWfu/4lw/HYfD3tuunLYYYtvJRwJruQ0FIHaE+Ch3fF/RsAIGAEjYASMgBEwAkagNQImwK3x8VkjYASMgBEwAkbACBiBAUPABHjABtTdMQJGwAgYASNgBIyAEWiNgAlwa3x81ggYASNgBIyAETACRmDAEDABHrABdXeMgBEwAkbACBgBI2AEWiNgAtwaH581AkbACBgBI2AEjIARGDAETIAHbEDdHSNgBIyAETACRsAIGIHWCJgAt8bHZ42AETACRsAIGAEjYAQGDAET4AEbUHfHCBgBI2AEjIARMAJGoDUCJsCt8fFZI2AEjIARMAJGwAgYgQFDwAR4wAbU3TECRsAIGAEjYASMgBFojYAJcGt8fNYIGAEjYASMgBEwAkZgwBAwAR6wAXV3jIARMAJGwAgYASNgBFojYALcGh+fNQJGwAgYASNgBIyAERgwBEyAB2xA3R0jYASMgBEwAkbACBiB1giYALfGx2eNgBEwAkbACBgBI2AEBgwBE+ABG1B3xwgYASNgBIyAETACRqA1AibArfHxWSNgBIyAEegSgWWWWSawORkBI1AfBAZdbq2R6jMX3VIjYASMQC0RGHRDWstBcaONwAgIDLrcmgCPMAF82ggYASNgBLpDYNANaXfo+GojUE0EBl1uTYCrOe/cKiNgBIzAwCAw6IZ0YAbKHTECEQKDLrcmwNFg+6cRMALlIjDoCrZcNKtTW3Zcs/9Xp6VuiREwAkUIDLrcmgAXjbyPGwEj0HcEBl3B9h3AilaQHdfs/xVttptlBIxAhMCgy60JcDTY/mkEjEC5CAy6gi0XzerUlh3X7P/VaalbYgSMQBECgy63JsBFI+/jRsAI9B2BQVewfQewohVkxzX7f0Wb7WYZASMQITDocmsCHA22fxoBI1AuAoOuYMtFszq1Zcc1+391WuqWGAEjUITAoMutCXDRyPu4ETACfUdg0BVs3wGsaAXZcc3+X9Fmu1lGwAhECAy63JoAR4Ptn0bACJSLwKAr2HLRrE5t2XHN/l+dlrolRsAIFCEw6HJrAlw08j5uBIxA3xEYdAXbdwArWkF2XLP/V7TZbpYRMAIRAoMutybA0WD7pxEwAuUiMOgKtlw0q1Nbdlyz/1enpW6JETACRQgMutyaABeNvI8bASPQdwQGXcH2HcCKVpAd1+z/FW22m2UEjECEwKDLrQlwNNj+aQSMQLkIDLqCLRfN6tSWHdfs/9VpqVtiBIxAEQKDLrcmwEUj7+NGwAj0HYFBV7B9B7CiFWTHdYUVVggcW7RoUUVb7GYZASMQI3D//fcnMrv88svHhwfqtwnwQA2nO2ME6oVAlijVq/VubREC2XFdc801E2N6ySWXFF3i40bACFQIgfPPPz+R2c9//vMValVvm2IC3Fs8XZoRMAKjQCBLlEZxqbNWGIHsuG644YaJMZ00aVKFW+2mGQEjIAQOOOCARGbXX399HRq4vQnwwA2pO2QE6oNAlijVp+VuaSsEsuO67bbbJsZ0s802a3WZzxkBI1ARBDbZZJNEZrfeeuuKtKj3zTAB7j2mLtEIGIE2EfjIRz6SKNlnn322zSucreoIMJYQYMZW6cQTT0yOrb766uGtt97SYe+NgBGoIALIKLKKHCO7g5pMgAd1ZN0vI1ADBFZdddVEyS5YsKAGrXUT20GAscRwMrZKb775Zlh55ZWT4w6DECreG4FqIoCMIsPILLI7qMkEeFBH1v0yAjVAYJ111kkU7eWXX16D1rqJ7SDAWGI8Gds4HXbYYcnxj370o+Hxxx+PT/m3ETACFUEA2URGkWFkdpCTCfAgj677ZgQqjsCuu+6aKNp99tmn4i1189pFYN99903GdJdddhlyyZIlS4KWQ9t+++2HnPM/RsAIVAMBZBPyi6wis4OcTIAHeXTdNyNQcQRuuummRNl++tOfrnhL3bx2EVhxxRWTMZ0zZ86wS84888zkHAb22GOPHXbeB4yAERg7BKZMmZLK51lnnTV2DSmpZhPgkoB2NUbACAxH4Pe//3348z//80Tpsu6kU70RmDFjRjKWjCljm5eOP/741MiyxNLChQvzsvmYETACJSFA3P66666byuUgv/gWQ2oCHKPh30bACJSOwIEHHpgoXuLOXnvttdLrd4W9QYCXZT7+8Y8nY7n33nu3LFQv2eAJXnbZZcNRRx018I9bWwLik0ZgDBB46aWXwhFHHBE++MEPpuT3pz/96Ri0ZGyqNAEeG9xdqxEwAn9AAOL0iU98IlHA2bhRg1QfBCZOnDiqG5mpU6eGz33uc6nhxQiPGzcuHHfccSbD9Rl2t7RmCEB6CUX67ne/Gz70oQ+l8ocsIpNNSibATRpt99UIVBQBPpGLN/CP//iPw2mnnVbRVrpZRQgQ+vD+978/GcMzzjijKFvu8SwRZh6wrb322gFSfcIJJwTCY2bPnh3uuuuu8NRTT4XXX389tywfNAJNRwDZQEaQFWQG2UGGkCWtuiMZY99E4qs5YgIsJLw3AkZgTBE46KCDUm8En+F0qgcCcUxvN6s7YKh32GGHsOaaa6bzIDbU/v3ujUEvcPjABz6QhKt89rOfTUjR+PHjwzbbbBNYweO6667reSgShOyqq65KQl1+9KMfJTc3X/jCF8Jqq60WVlpppeQJ0F/91V8l4TB/8id/4vH/w01gL8Y6rwxuLnfbbbdwwQUX1EPJ9KmVJsB9AtbFGgEjMHoEIFN/9Ed/lBjAT37yk+Hoo4+2t2/0MPb9it/97neBt8T/4R/+ISUr3ZDfbINfffXVcOWVVyaEDGIGQcN7BWEjzhgCl2fYfax3JLkbksSXxE4//fSw3nrrpUvfeWx6NzatsCz75iYru3X63wS4TqPlthqBBiBw2223DYkN/Yu/+Iuw1VZbhTvvvLMBva92F59++unAms162Q1DjAdv1qxZ1W64WzcEgdE+Jv/yl78cLrrooiFl5P1z7733hr322it85jOfGXKDwpqy3/rWt8KWW26Z3NQQ9jJz5sxw8803B1YgeOihhwJz6+WXXw5vv/12XtE+ZgR6joAJcM8hdYFGwAj0AoFzzjlnmCFdZZVVwne+852w5557hpNPPjlcc801CTF++OGHw/PPP9+LahtdxiuvvBKeeOKJcM899wTWaD733HPDwQcfHCZMmBDWWmutIaTmIx/5SJg8eXKj8RrUzhe9KLXRRhuFW2+9Nbfbp5566pD5seGGGyYrDNx99925+X3QCIw1AibAYz0Crt8IGIGWCMydOzfstNNO6ec5Wz3+68c5Vidgiba/+7u/C//8z/8cvva1r4Xdd989eZMaotjL9MYbbyTE88gjjww/+clPwhZbbBG+/e1vJ2t0/uu//msSckBoyF/+5V8OIRv96HdemX/2Z38WNt100yQ8oZf9dlnVRSBvqazsmt3xBxQ22GCDkPcRlOr20C1rKgImwE0deffbCNQQgcceeyxcdtlliVeSuNCqkEKWFCJmdbQJcsGjZeJcV1999TEhtTHRzZL9b3zjG4Gl6Vg2iUfVTs1FIPuxBJFg5q/m0H777ddcgNzz2iFgAly7IXODjYARKBOBorCAzTffPDcsgI86jJSee+658IMf/CAlDiIQ7FdeeeUkXpK3tFmUftq0aekyYLfffntYtGhRePbZZ0eqwueNQF8QiL29kOCdd945mcesIOFkBOqEgAlwnUbLbTUCRqByCDz55JOBL5997GMfSwktqyMQQ5uXiKuNVzHYZJNNkjfm7WHNQ8vHqogAK35ws8acX2ONNZLfvLzqZATqhIAJcJ1Gy201Akag0ggcc8wxQ+Jzjz322CHtPfHEE1OSDPFlfVQnI1A3BB5//PFhMfl164PbawRMgD0HjIARMAI9RICQiY033jgluqxYQcLDq1CHSy+9tIc1uigjUD4CkyZNSucz89rJCNQNAc/auo2Y22sEjEAtEGD5MBFeXiL7j//4j+T/Aw88sBbtdyONQCsE+NhF/OJmq7w+ZwSqiIAJcBVHxW0yAkZgIBA45JBDEtLLmrnLL7988ps1i52MwCAgQBiPbvIGoT/uQ7MQMAFu1ni7t0bACJSMwGqrrZaSBD8qLhl8V9dXBA444IB0bve1IhduBPqAgAlwH0B1kUbACBgBIcCHPP7oj/7IREGAeD8wCLAMmj3AAzOcjeuICXDjhtwdNgJGoGwE1lxzTROFskF3fX1H4P777/e87jvKrqBfCJgA9wtZl2sEjIAR+AMCe+21l4mCZ8NAImAP8EAOayM6ZQLciGF2J42AERhLBC644AIT4LEcANfdNwRMgPsGrQvuMwImwH0G2MUbASNgBG699VYTYE+DgUTABHggh7URnTIBbsQwu5NGwAiMJQJ8LtlEYSxHwHX3CwHP634h63L7jYAJcL8RdvlGwAgYgRBMgD0LBhIBE+CBHNZGdMoEuBHD7E4aASMw1giYKIz1CLj+fiDged0PVF1mGQiYAJeBsuswAkag8QiYKDR+CgwkAJ7XAzmsjeiUCXAjhtmdNAJGYKwRMFEY6xFw/f1AwPO6H6i6zDIQMAEuA2XXYQSMQOMRMFFo/BQYSAA8rwdyWBvRKRPgRgyzO2kEjMBYI2CiMNYj4Pr7gYDndT9QdZllIGACXAbKrsMIGIHGI2Ci0PgpMJAArLHGGuFv/uZvBrJv7tRgI2ACPNjj694ZASNQEQRMgCsyEG5GTxF48MEHw2OPPdbTMl2YESgDARPgMlB2HUbACDQeARPgxk8BA2AEjECFEDABrtBguClGwAgMLgImwIM7tu6ZETAC9UPABLh+Y+YWGwEjUEME/vqv/zqwORkBI2AEjMDYI2ACPPZj4BYYASPQAASeeeaZ8MILLzSgp+6iETACRqD6CJgAV3+M3EIjYASMgBEwAkbACBiBHiJgAtxDMF2UETACRsAIGAEjYASMQPURMAGu/hi5hUbACBgBI2AEjIARMAI9RMAEuIdguigjYASMgBEwAkbACBiB6iNgAlz9MXILjYARMAJGwAgYASNgBHqIgAlwD8F0UUbACBgBI2AEjIARMALVR8AEuPpj5BYaASNgBIyAETACRsAI9BABE+AegumijIARMAJGwAgYASNgBKqPgAlw9cfILTQCRsAIGAEjYASMgBHoIQImwD0E00UZASNgBIyAETACRsAIVB8BE+Dqj5FbaASMgBEwAkbACBgBI9BDBEyAewimizICRsAIGAEjYASMgBGoPgImwNUfI7fQCBgBI2AEjIARMAJGoIcImAD3EEwXZQSMgBEwAkbACBgBI1B9BEyAqz9GbqERMAJGwAgYASNgBIxADxEwAe4hmC7KCBgBI2AEjIARMAJGoPoImABXf4zcQiNgBIyAETACRsAIGIEeImAC3EMwXZQRMAJGwAgYASNgBIxA9REwAa7+GLmFRsAIGAEjYASMgBEwAj1EwAS4h2C6KCNQRQR+/etfh5deeqlvTfvlL38ZnnrqqfDOO+90XQdtffnll1uW85vf/Ca88soraZ7f/va36e8q/liyZEn4/e9/X8WmuU19RuCtt94KixcvHnFOt9OMJ598csRsyLnkkLq7nXe/+tWvkrarzBEb4AxGoEYImADXaLDcVCPQCoG77747PPHEE8OyfPvb3w7LLLNMuOuuu4ad6/bAG2+8EVZZZZWk/FtvvbXb4sL++++flHXeeefllvXss88m59dee+3E0G+xxRbJ/1deeWVufg5ixCEGeRvnSK+99lru+bxrYpJRVClEfs6cOWGTTTZJ2nf11VeHpUuXjlhHTOyLyvbx+iBwySWXJOO/0korpcS0k9ZzE4UMr7jiioEbwLx08MEHJ3kWLFgQ2Mi/3nrrBWS0KN1zzz3h3HPPDS+88MKwLG+//XZYY401knIuvfTSYefbOTBz5sxcvfP888+H5557btRbq77E7bnsssvC/Pnz40MJ/meffXZAZyCLI6VWeiOrF7hBQHZbba+++mpuldykTJw4MUyYMCFpG+0bzbb99tu3HOPcSn0wQcAE2BPBCAwAAjK0H/7wh0PWU7TtttsmRmzu3Lk97ylGBkNLvSKTnVaCJ1d2NHeJAAAer0lEQVRk+vLLL88t5oEHHkjqGz9+fPjd734XDjrooOR/2gDhzCbKhDRwvmhbtGhROPTQQwvP51137LHHplXhabv//vvDtddeG4477rgwbty4YWVts8024Zxzzhl2PK9syhrrBEEo8vq9+eabbRGIse5Dv+vnZgwCWbQtXLgwcOOjMb7ooosC87co/7333hsgnXnp/PPPT8qBSBfl2WqrrZI83Og+9thjiUxS97e+9a3csURe1Tb26IkHH3wwrV46hXMnnXRSuOqqqwI3mnlbHtGdMWNGWv4ZZ5yRltuOTMbtin9DEkfyausmmetincdTKpU1kjNgtG084ogj0rJVR3a/1lpr5cpNrPfoH4R2yy23bLltt9124Yc//GFSZy90bzo4DfthAtywAXd3BxMBPI7y1mS9RP0kwDvvvHOihKmj23T99dcnZdH+119/Pbe4hx56KMmDUZcXZ5999kmOYXA4Hyc8Rquuump6njzZ/zGGu+6665A8WeOV/T8mwCLl2TwYpsMOOyzgmSf9/Oc/b6uOrNHG201/izx/cX+7/Q3pPeaYY9J28vSAGw3SFVdckZIqG90QTj311BSn7Nh3+v+0adOGDSH4f+lLX0rqwltblLJy/vDDD6ft4wYsSxy5cbv55pvTpxS0mXHlBgePML9H04/DDz98SNN4qgKZUxl77bVXMpdimVx33XXD17/+9SGb8iOn2XN4RjUfh1QW/SMc0CNZr6vknHkt/RFdmv6kjboZV3uK9ssuu2yYMmVK2s+ifLEspRWFkHhv6St4z5s3LzzyyCOBsWu1cYPTS+dD3J4m/TYBbtJou68DjQBGS97OWMHLIMTEql0gMAQQ69VXX33IpmOxssdYZfNl/+c6DEbWA4Nx3mCDDRIjgrepKIkAx8aEa3fcccfwxS9+MXmkWnRtfHz69OlJXXhl5Olkr428Z511VpJn8uTJyaXyiiq/ylObMGCQIjzReJvuu+++xGsG0SBxPeQCDyC4QWohCWx49b761a8mx+Nxisvu1sOu9rbaZz3h8lrddNNNSds03vS1jPa0autYn8MjuuGGGyaPq3fbbbew++67J145SBrzk2MQQD3OxmunpwP8xsvHNWy6Bk9vNonorLDCCi0xlwcYEqWkm7PYA6tz8Z55Rptnz54d4ptp6uTGjRAI3TgipxdeeGESOhE/1Sh6anPyySencwcizrwR4aOubKIdzLPYG53NU/R/7HHPeyIEcdQcLmqvykbOkVn0C9gy52mvbmRvuOGGJKt0Rt6eDDwJkLznkff4hkBtG83esqgRG/3eBHj0mPkKI1BZBGTwUKDEAZJEgDsxKKN9FNiu4o5JHm1Uu1HmikcklCNrMGTAeBTMy0U8NoaI7LfffgkZWX/99Yd5jykP4i3PuOqira3CDQ455JDEcI0U/yiSSliGvGy0W4ThggsuGDJf8LpRd9YrxzjRf+I9lVR2WUZOJIqbFEgTxpukR/C0mxuC22+/fdjYqM1N3M+aNSvwVIC4VsYX/CZNmjQkHIkbHR5xgyFzijlyyimnJGSyCDORL67BM0/iScCLL7447BLJOWU//fTTSTsYN26sIJWEKbSTIObUx5zjRo5EO773ve8lxyHJSpBZ5Co7b3Vee/ChTDZkH3nkGggl8nnbbbcl3k8ILMfBj1CLO+64IznHeWS/VYpDHHgyVZQUK009hEu0kySb3MCCL/3I3sQXlSMZ5oY3q8+4JibAPC0ivnik+GhiqB9//PHES00/mn4zWoT9SMdNgEdCyOeNQMURwIhg8NgwJoQEQFJQ7jxO06M8FDakUXnz9ijfOOEBgSRCGrXxaI6XSWTQ8PBwLD6vx3c6lt1nDYGMN7F0JBFdPFAQCl5qoU+QTNWbt8dwZvsAPhjcbP44jIE699133xA/klX++Bhebtoat7/IwEEgKSP2MlPPkUcemRwHtzjJyMbGTGWXZeQ0DhhrkXnaKK8X7eCmyGkoAiK23HTGNwuMP+QTT6mezvCkgpVOkBHOgzVylpfi8deNkR7jQ+S4EWGe7bHHHglx1JzN22dDFOL6GOu99947CbUgJp4nNyK/5CO+XWXSfhHwM888MzmumPy4zOxvblQhtDztQCcxl7gpiHWJ6sjbt2o/MiM9B85FIVS0KY65JW8sb3Gb6f+PfvSjxEOvsdtss81SLz7tx3tPmFOsD+Iy+K0xLCLAcXvQU9mwj6L/GQdwKks3ZPs1CP+bAA/CKLoPjUZARijPaIz2GIRzpFhTjOWmm26aKF9iE7MhARBr4nlZHq2dBDmmnXHdMvJ4cjAARf2AnPKo+Wc/+1kSegCpiImb6sfQKo6SsjBkWaMl72dRXTqeJSyxgYuJjAgO18n7Hhu72IMEKZBXLDbIKltkAawJrbjuuusSUlKEMf3ljfTs2MR4xOdpN3k1rhAaQjc4Dp4i84wRN1l55UI66JO8ea28a7Qvjs989NFHk+ti0qW21mGvG4f4yQaromjOaA+REnYa2yJiBO6ak8xvkm4MmQ/HH3/8sPJVD08fIOVHHXVU4rEkjCKeVzGmHGe1CF0bz0vaEIc5KA/1UyYeUUINmJPZRFu5qczekCIDCoFgHhBOQbnc4OIpxlOtDW+znqRkb1hVHzcGIr+0q0gmlJ99LJuMiQh9nEfjoz4X7bP6IC6D3yqn1ThPnTo1sBEDPtoNXDSnsnX7/9YImAC3xsdnjUDlEZB3rkhBj+Y4BqTIUAqIuD7ITjaJkLfy2OgaDKAILqSU+FiRLdrNYz7eJocQ4ynCIGKwaCdEbDQJwytPMOQgS5RFNogNzD6GxEBi6GlT1pCJlODpg1RD5iAeMe4y3npxKvs2P5jTpyz+Mp4cx7MoT1RcNrhBZpXiF3hUr86xzzsfj2lcdkyM4uMQYTzrShdffPGQ/iovNyg8hYhTXD+Y8nKU8rczZ+KyqvI7JsDcOHADqPmkvmnPePEkRmObnU/qEx5TXXPjjTcmZeoJCDeG3EBww8JcQy4OPPDAJH/emKvM7J7rVAd7PL0k5PKaa65JiSXnkBnGPJ4ThBzdcsstCRGOy5aXl+uYu9zkKumRP8djApxHormGly8pJ69f6AvK4TxPfxSyo7pa7RVbrTZmr9X48ERNK1qgGzbeeOPkfQP6jTxK7ovqUjnxOHPjQPgLZPe0005LbgKQb15yHO3GDQQ3SJTF+xNg6tQeAibA7eHkXEaglggQI4uCR/nG3slsZ+SZxJi0IsAie5RJDGteEpnKM1jZ/MpLedkNw5NNGFZ5j2ICpnx4r2MyiJHDYGOkePEoroPYSF4+4sUkvJc6Ly8exo78ClWQ1yg2ZNQbkz8Z47geftMG4vt0/Be/+EVCJiA2GHHVTdmxN0fGU9cV7THE8qiKYJA3bwzyzuumJVv+v/3bv6Vtjs/F8yReii7Oo99ZYhLXrzza150AQ+jjJw3c3EGGudm68847Ayt60FfGi3AAfmfnE3MKjOTVFDbag2d2qUOu0bJleS+RMqfwlMY3fXGoBuMJAeSmUi/qqT72zCM9MaGseKUQ5UPGiOFVwhMb90E3y0UeYPqllwEpi42bBT3qj+cy/eB/1c0NWSdPDyTTKgdZVz8lexBU+gJG3Nwgq9/5zncSOUUX0U6uQYfQt3hjHCX38TjriY/q7dUeDLMed42H98MRMAEejomPGIGBQUBGcZdddmnZJ5GSmNhkLyCPPKgYnCKiLFIbG6xsWfofo4Xyx5AQykD9/M9eMY/Kyz5uJysTYHCphzUxdS2xjEryuMrAYCCUT8f4HzItEioCnO2HDGI7hoyyKAdvcLY+Xc/LcWqD9njk4qQ6dR6P3zPPPJNkgQTp8TDnRXyEEcfyxiDvPIYdAq0XnXgBMDboEAPKI56ZGwzdfGjpOs4xJyDzJDxckFmOs8Ufgojr13nazuoFRXMqxqSKv+UBPv3001MCjJcWQsxNGHOV/mmVAvDQo3/Nh2y/FAYEwUI2hJXi5LP5NV+5cWQc8CTiXZfHlrkfh6XgKYSscyPLmJAgciLwkHeeuhSNCddTp/LTPvRNnLgh1RMezkOC45vY2AOs/hXt47kcE0j6h6yxsstowwfwnEJQJUeMi7CQ7JGH0IxYT3CTwBznOo2f4sCL2i+iLHzAhnAxngZk35EY7f/oAl6co7z4Jkd1eZ+PgAlwPi4+agQGAgFi8FDIGEM8N9nH0eokRg6vVOxJ1Dn2KFXFh1IeRoOU51WWZyk2WCpL3hX9z14eT+rg8SLlY3hJEDM8ZXxEgK8lyZgXGRmOY5DULkg0XnAMCo8sOY9B5kUfvc2t/CIxoyHAtJH+YhyJyQQX9Ydzwg0yQzjHTjvtlBIKXoRi/VC8aWCV9whYRph28/hb/UrACSEhNCLYjB2kNSaYeWPQ6rwwEJlWPSJXsRGnb1q6jTbk3bDE3mH6Qorrp1+aS6qrjvuRyA/9LNq01Fy23/FYa+WQWD4hPYQsMFbxDWBRPRzX3FZd1ME4Eu5AqAE3YMxVCDdPQCDuhGLkffyCY9QPqYV4Qe6Zf9kEUZTcZgkw3lLdCOAhz0uae9m5zI0FL5SiU9p9kS6LjUgtbUQOIZFKkj0IMH1VXm5uIcBgh0NABFiyk61D/xeNM0+DlKfTPTf6TqNHwAR49Jj5CiNQCwQgYnhn8PxAgPU4Mm85JAgiyjcmOOokBlJxmhgBxX9miUy7yjtrhFVP3tq8PHpsVS7E4+ijj04MNwYRUlmU5HmijySFOMijJgOm9mUNrwyiDF5cDxjxFbjsI1zqgnBjNDnHxuNTjtN21onVBvnPtl91goHaFdfLb93kMDbcyMTjkiUN5G91XhhkrxMWcd/lvadtwjDbtjhkBqKTrT8vzCVbRh3+Z5yQMfrIxg2bVvtA/ohrJ1RG5+M95KpVwtsO8QVnrT1Lfo1VnnxwY8IKBRBDiCWP+uMbs7g+SKjKzytrpGMQu7wb27gOPL3oGBL14TlFN9EmsKAOYpjJg/daG2EZrLLA+eycjMsnP6EKvLDHBmlVu3kipOPsGSdeuOO8ZCYuS78le9xgoP/0FAPcuU4vIUpnajzw+kOo41AI/VbZ8V6yxRhwk85NhTZuSjQ2tF0vv3KemxN9Or4VNnFd/j0UARPgoXj4PyMwMAiIoChcQUQJxZ/1uknZxwQHIDBQ8decuFbliVDK0LS75+34bMLQcT2GRfGNGE0MAAQCrxRGDWN+wAEHJHljLyUEFK8Mj525Li+J+MmTKu+liKVeWtL/iu2VcSnCiLowcLrBaBeHbL48Y6w6886pj2qn8qiflK+2Ky/7VudlxLPXyUjH80NtUz8gAtlN8ZtxW+L64zGM21iX38w1niZA9PGCasOTqBfMIDA8edG5vD1l5K2+wrzWvIxvFnhszg0TH6X46U9/mjyihxAxB9gUogKOeI85xj4vaTyQM9bTprzsxk0mHlIdJ7yFpxmMqwhgXtnxMdpMUtwt19G/dr23RTdZcR36LXmkTwoZ0jn2EHZIuGQmPqffmt+UQT+Fv2RB814yIdmR/lA5I+1VHtczZ2JvOzdSIsCE18TeePIqNCYrryPV6fPvImAC7JlgBAYUAXkoIHwofMisHkWi+ONVFKTspcwFiRbFR9mz7ijXxUYDjyUGXQu38wKGiDb5WT1B59iTF4MbJwyUyCPtw0OtWFSMTzYGUY8M4w9J6KMVtLNoGSQZevDQY1mMC0SelDVgkAHK08s7RRhxrcoGG9ZmhfBg6NkgR/I2Y0T5X+fIh/eKdsS4Ch/VmXdOeWRAlUdtoe15hrHVeWGQvU51xPNDbaOedjaV2ap+9akuez05aaf/I+XJuzE84YQTUmzxlBIywzhTVvaFwTguVh94IeZX+bk5zEsaD25sszeP6A3khXHXjanKkHc/nhM6l93rhT9kVgRY1zH/IXfy0moOEnKlY+zz8MnWo/8J6QAjeZl1XHv1WTKj4/E+O7+FKXlY1pA+Ibfqh9rdKQEeaX60Oi/Zitvv3yMjYAI8MkbOYQRqhwDkVoYPw6kUH0dx67GolD3H4thDwgpQvOedd15bXhPqkUeyHe8ehkjkN0/B86lZvDlxkuEVedWLflwP0SxKMnqxxyouO2vA5HmTQYsxyj7yVdl5JIL2EP9L+/IwaeWNUp2MZfwCU9xHkVMZc7WF+vIMY6vzwiB7neqQsad+tY16eKQMGWS+xJvirzmnG5lW9cf9qsNvYcCNmkJcCHeJ57RCXcBJG080lF9yqnmmfgtzXZPd82JWNlEu+ZD5mBDz+F43etlrNB6aP/F5eVLzzqnv8ZyIr41/Q75pF0RX18U3sJobXCN5lqzgGc+GBsVlZ3/jVdb7Ctl5rLxqA+Eb0oE6p73y0Hb0X/xSKNfQZnCRPpHsZMdR5cW6RsfYa5zxcDNG5NPGF990c8wNCDcoOkcb5OQo6mdcj38PR8AEeDgmPmIEao+AlDHKM/tiSvzmPnFzJCn72CgJBBknFO9Ijw25Rgq9HaWMsVIoAgaSdWPxcuF1zXskTPkYbK1GIZLKtXiBWyUZehmsbF6VhQEjr0gMKzmQhFGewVfZtGOdddZJXkoSwcGLjheNc3xhS8fZc05LY7UiGVxb5AHTWCs0hXFS2yGm2aTQGMrMjpHKyh7XmMZ9Fx555ahODDaPbdn0WD7GKluPrqvLXhgwvsxlJa1lrcfmHNeShIyTsOC4MM8SJ3lNwReCTT6ILTeAcV2qk73II/OMkCCuZV4x5kVJ49Fq/sWrI6gc9T2eEzoX73XTTR8gdAp50NjLi65yNNcgwJA++gBmRfogrovfKo/r9AGabB61vUgXkF95KKfVpjKKxpGykEl0MTKfJdxFSxC2qjN7bjThIVksmvy/CXCTR999H0gE5IFFSRZ5RPEU4V3VF5BkOOV1yQOmlaGM88uAycDF5/J+Y5zxkFJ+u0kvGMkQQNzxpEIiMDSKN4zLU/tlsOJz/CbkQUaaF1kom0eolMUnbiHCHMu7XmWrPZ3sWxEQ1Rt752mzvOGcxwCTIEciP3keLoV2cE12jGTEs8c1piIp1BP3GczzCMqJJ56Ykgd9YSy+LltP0oEa/RFJAheNjTyDzKVs2IBeWorDEYR5lgCzAgpkbjTruqrueP4R768bTUIJsuRZ45E3//RBF7zY2aS+58lDnFdLEeomQd5ZVmEhTZo0KZkjmguaa7xUSluVv5VuUn30BZmVvGSf1CifSHI8bjqnvfoXY5n3WzJRNI6U1wpjQrbw5sexv/otcsxcYrWZOAZYebg2Ds9Q+70fGQET4JExcg4jUBsEYvKLkc0au6KOaAUGffQhL18rJR7nlwGTQYvPtfsbDxmeakg6L8jFCSMvjyoGid8iH+pHnkdE7R/JYFM3nm7KJo5Z3ma8eaonbg+/VTYkghAACL3ifPmtmETKgPDrHDHALH8GgcwjIFkjzHrO+qABRo/rZJRFMGkPhEXH8QLTPnDLfsAgO0Yy4tnjGlMZe/Vf5Ia6iN/Gw0cixpo1WdWGmIgLK85l61G5ddlrfIQL8sYY0zfGhpfbWB4M8rbjjjumeHBepCV+8tBOv/WlQVZ5yMq3vpom3LW0GHO6aI7JOwnJYo4oxfHD3EgTqx97n5m71MPYjiQX5GPlAp5GqR3MY7WL83rSormmuVHkOVc7tVdcv/oufHU+3quOPD2hfBpbtQPPrTby6ImYxl6yk72RIS+40m886fETOdrMTSIv+OZtzBuuY2y4GcnLwzFCS7KeZfXD+2IETICLsfEZI1AbBDCE8YcHICPtKkSulccwT3kLBBGXPKKmPOzb8SbH+fmtt+nxeGgtYBkyHgWT6A8eLB3XXmEbcT9iMqi61P5WBBhyqvAB+on3TesaUx9fpsrDVWVzTfZFIuqXpzbPi0XcX1FoiYyw+lq0z4Z/6IMLRfl1XMZdGImMZY+LMMjYK3+WdFCubh5UB8abfiiBlTDO1qM8ddlrfMCF+afH++p7qz03bngoWxEniCVEkRUcWFOZ+aUywVkeTryI8U2h8gh3hVPkzX3mM/LCy2hxeRpHSBvhNyqT8Tz00EOTY5BkxrMo6YVVSBweba3FrXmkJwTCgnI01zQ3wJXVLqgf+c9LxAjL80u+vKUedR3lsW4y+eSF1rl4r7FlGTWebqAL4o0bW8ZDmGoc83QPN7nUp36rnjhOm/OdbrQjvnlR+d63RsAEuDU+PmsEKo8AilrGCgXK0lP6LG5e4zGqMYnTV75GUqIieYo1hRiyJJmWRtJexop4Xh2L9xgUPKAkiCHGMU/xE8d41llnJXn0sQnlo63xG/J43Xg8yHnKy3scr1hEGawYG/DIfpktjrll/U3VnUeChQ15GAvqiDctB5Z3Tv3Pw1/EGS/0ZZddlovVKaecEncl/Y1XSG3Wnjr4/DKebY7hPYqTXlbKPgnQk4WYqOg6sGN8VUe8p914CuMUY1VEaOL8Vf4tkiRiI6IDSQQrvLTE2eP9JC9f0YPQMubcuIEdL82BWfbmU2MU46nfPAkgP/XppkXnkC+FDTDeLI9G7CnnmRNFCXL3/9u7t9zWbSiAomPMUDL/n2K3OAUhyMqjDS8DLAGGHVkmqUU9DilKKUCdbWDSaz8owC7d0pv5vfd3QxWuQz3Ko3WboHQafhMkrjfDlc667o1zbt4EwKU1/wjk7ma+fruWa92m5lg3PdQ12CrLrMP0Ot+ZTN3Osq/e53gy69a+09NuCpDnNY369T9y1iCoPPUkt13cvUqndetVHdRjfrdc80qn9EyfFxAAf97KkgSOE5geljk4dzB+6pF56nF4uhzYik/g0sm7E94EbpP3V94nuJyxePPbTiL1ysyzOwsW5rt5b/zvXEZce2fn+3rKZqq3p0CiYGN6uQtW5oTYcnMn9fy+k01jfq/TGgRPr/MsMzaTxnfey/ejXpxOml1Wb5hFvXofLV9vdAFozgXTBSU/NVWWylTA1b/9ffXUip/K/0+kO0HSBEGV4Wn/mzJm1DCV9/f3f7fvedzeLFOasx11o2jP4q13cdKf8cSzTI2NtoumuTw/3/Xe9rXWSdtD+8L6r4rX5Zt/bby033Rj2fo4tvlNDd7SnKkG2+RbcD2NueZ1/OhqSzeMFpzX89w/m6jBMMeVtXE2+1f73ax/2/IE9lOG9ckYHUNm/t37Oixnyry+T93e/Xadl2HHmfWRkev36+e1x3kdprQu818+Pw1HWdfN538EBMC2BAK/WKAW/4xRLRjsQPzRdHfg7aa4j4KjTqqdnOZEWk9NvS3fedWT0VTQVDDQiflV/o3rLc+GR9wFfJ305qRx7f3OoxPzfN/72rNUGQoa5vvyKsh8Nc1Jfe1latmxKZ2Cv3p+Zpzv03tBQb14rV+vu/V7VRbz/7zANOC+GnjM72a7q+5r7K1TAXHj319dzWlbaX8sKJzAd/19wwLWYRHXYQHr+NspR8eShtM8jZ+dPNpfa8i+vb39vf/MlaH5vp7h0p0GafmV/vUqQunUMJ9hMVOW6xMc7vbLySOHGobrVKB8TXPSLrjvitDTNHV0fd7y/Gb2+eq+AL4e2j535ar1nFfHpGw6fq1TY/M7FhfE/1+vGhAzjGXNy+d7AQHwvYu5BH6NQCfCVyfJu5XoRFKPzPyDii6ffWbqRNWNaV3OvTsZfSaNn1qm8hRA3DUAmj+XIrukeDfV2zO9ynffr/PuLptm06XYgpa1d3n93dPnblaq97RAwPR7BOph72pBwdJXpraXgszG3XaT192Qna+k97Rsx4dX+3hBW42wvv/Odjv5Fqi3D12ngsx13drHXgWec3NogexnG4Lt7w3beBX0FXSv43b7/NljZceUesDnSTnXdevvjgVP39/9xrxzBATA59SFkhAgQIAAAQIECGwQEABvQJYFAQIECBAgQIDAOQIC4HPqQkkIECBAgAABAgQ2CAiANyDLggABAgQIECBA4BwBAfA5daEkBAgQIECAAAECGwQEwBuQZUGAAAECBAgQIHCOgAD4nLpQEgIECBAgQIAAgQ0CAuANyLIgQIAAAQIECBA4R0AAfE5dKAkBAgQIECBAgMAGAQHwBmRZECBAgAABAgQInCMgAD6nLpSEAAECBAgQIEBgg4AAeAOyLAgQIECAAAECBM4REACfUxdKQoAAAQIECBAgsEFAALwBWRYECBAgQIAAAQLnCAiAz6kLJSFAgAABAgQIENggIADegCwLAgQIECBAgACBcwQEwOfUhZIQIECAAAECBAhsEBAAb0CWBQECBAgQIECAwDkCAuBz6kJJCBAgQIAAAQIENggIgDcgy4IAAQIECBAgQOAcAQHwOXWhJAQIECBAgAABAhsEBMAbkGVBgAABAgQIECBwjoAA+Jy6UBICBAgQIECAAIENAgLgDciyIECAAAECBAgQOEdAAHxOXSgJAQIECBAgQIDABgEB8AZkWRAgQIAAAQIECJwjIAA+py6UhAABAgQIECBAYIOAAHgDsiwIECBAgAABAgTOERAAn1MXSkKAAAECBAgQILBB4C8tBhgmTxrbfgAAAABJRU5ErkJggg==;" parent="1" vertex="1">
          <mxGeometry x="1179" y="533" width="704" height="402" as="geometry" />
        </mxCell>
        <mxCell id="i-qYyfxA9N3GB8noAhmj-38" value="YARN Master" style="rounded=1;whiteSpace=wrap;html=1;fillColor=#ffe6cc;strokeColor=#d79b00;" parent="1" vertex="1">
          <mxGeometry x="1404" y="31" width="120" height="60" as="geometry" />
        </mxCell>
        <mxCell id="i-qYyfxA9N3GB8noAhmj-39" value="K8S Master" style="rounded=1;whiteSpace=wrap;html=1;fillColor=#dae8fc;strokeColor=#6c8ebf;" parent="1" vertex="1">
          <mxGeometry x="984" y="31" width="120" height="60" as="geometry" />
        </mxCell>
        <mxCell id="i-qYyfxA9N3GB8noAhmj-40" value="" style="rounded=0;whiteSpace=wrap;html=1;" parent="1" vertex="1">
          <mxGeometry x="1054" y="211" width="370" height="200" as="geometry" />
        </mxCell>
        <mxCell id="i-qYyfxA9N3GB8noAhmj-41" value="Level0 Master" style="rounded=1;whiteSpace=wrap;html=1;fillColor=#f8cecc;strokeColor=#b85450;" parent="1" vertex="1">
          <mxGeometry x="1179" y="111" width="120" height="60" as="geometry" />
        </mxCell>
        <mxCell id="i-qYyfxA9N3GB8noAhmj-42" value="K8S Agent" style="rounded=1;whiteSpace=wrap;html=1;fillColor=#dae8fc;strokeColor=#6c8ebf;" parent="1" vertex="1">
          <mxGeometry x="1064" y="231" width="100" height="40" as="geometry" />
        </mxCell>
        <mxCell id="i-qYyfxA9N3GB8noAhmj-43" value="Level0 Agent" style="rounded=1;whiteSpace=wrap;html=1;fillColor=#f8cecc;strokeColor=#b85450;" parent="1" vertex="1">
          <mxGeometry x="1189" y="291" width="100" height="40" as="geometry" />
        </mxCell>
        <mxCell id="i-qYyfxA9N3GB8noAhmj-44" value="YARN Agent" style="rounded=1;whiteSpace=wrap;html=1;fillColor=#a20025;strokeColor=#6F0000;fontColor=#ffffff;" parent="1" vertex="1">
          <mxGeometry x="1314" y="231" width="100" height="40" as="geometry" />
        </mxCell>
        <mxCell id="i-qYyfxA9N3GB8noAhmj-45" value="" style="endArrow=classic;html=1;exitX=0.5;exitY=1;exitDx=0;exitDy=0;entryX=0.5;entryY=0;entryDx=0;entryDy=0;" parent="1" source="i-qYyfxA9N3GB8noAhmj-39" target="i-qYyfxA9N3GB8noAhmj-42" edge="1">
          <mxGeometry width="50" height="50" relative="1" as="geometry">
            <mxPoint x="854" y="251" as="sourcePoint" />
            <mxPoint x="904" y="201" as="targetPoint" />
          </mxGeometry>
        </mxCell>
        <mxCell id="i-qYyfxA9N3GB8noAhmj-62" value="5，调度资源" style="edgeLabel;html=1;align=center;verticalAlign=middle;resizable=0;points=[];" parent="i-qYyfxA9N3GB8noAhmj-45" vertex="1" connectable="0">
          <mxGeometry x="-0.2171" relative="1" as="geometry">
            <mxPoint as="offset" />
          </mxGeometry>
        </mxCell>
        <mxCell id="i-qYyfxA9N3GB8noAhmj-46" value="" style="endArrow=classic;html=1;exitX=0.5;exitY=1;exitDx=0;exitDy=0;" parent="1" source="i-qYyfxA9N3GB8noAhmj-41" target="i-qYyfxA9N3GB8noAhmj-43" edge="1">
          <mxGeometry width="50" height="50" relative="1" as="geometry">
            <mxPoint x="874" y="261" as="sourcePoint" />
            <mxPoint x="924" y="211" as="targetPoint" />
          </mxGeometry>
        </mxCell>
        <mxCell id="i-qYyfxA9N3GB8noAhmj-59" value="2，通知agent" style="edgeLabel;html=1;align=center;verticalAlign=middle;resizable=0;points=[];" parent="i-qYyfxA9N3GB8noAhmj-46" vertex="1" connectable="0">
          <mxGeometry x="0.0167" relative="1" as="geometry">
            <mxPoint as="offset" />
          </mxGeometry>
        </mxCell>
        <mxCell id="i-qYyfxA9N3GB8noAhmj-47" value="" style="endArrow=classic;html=1;exitX=0.5;exitY=1;exitDx=0;exitDy=0;entryX=0.5;entryY=0;entryDx=0;entryDy=0;" parent="1" source="i-qYyfxA9N3GB8noAhmj-38" target="i-qYyfxA9N3GB8noAhmj-44" edge="1">
          <mxGeometry width="50" height="50" relative="1" as="geometry">
            <mxPoint x="884" y="341" as="sourcePoint" />
            <mxPoint x="934" y="291" as="targetPoint" />
          </mxGeometry>
        </mxCell>
        <mxCell id="i-qYyfxA9N3GB8noAhmj-48" value="" style="endArrow=classic;html=1;exitX=0;exitY=0.5;exitDx=0;exitDy=0;entryX=0.5;entryY=1;entryDx=0;entryDy=0;dashed=1;" parent="1" source="i-qYyfxA9N3GB8noAhmj-43" target="i-qYyfxA9N3GB8noAhmj-42" edge="1">
          <mxGeometry width="50" height="50" relative="1" as="geometry">
            <mxPoint x="834" y="331" as="sourcePoint" />
            <mxPoint x="884" y="281" as="targetPoint" />
          </mxGeometry>
        </mxCell>
        <mxCell id="i-qYyfxA9N3GB8noAhmj-60" value="4，扩容配额" style="edgeLabel;html=1;align=center;verticalAlign=middle;resizable=0;points=[];" parent="i-qYyfxA9N3GB8noAhmj-48" vertex="1" connectable="0">
          <mxGeometry x="0.0311" y="1" relative="1" as="geometry">
            <mxPoint as="offset" />
          </mxGeometry>
        </mxCell>
        <mxCell id="i-qYyfxA9N3GB8noAhmj-49" value="" style="endArrow=classic;html=1;exitX=1;exitY=0.5;exitDx=0;exitDy=0;entryX=0.5;entryY=1;entryDx=0;entryDy=0;dashed=1;" parent="1" source="i-qYyfxA9N3GB8noAhmj-43" target="i-qYyfxA9N3GB8noAhmj-44" edge="1">
          <mxGeometry width="50" height="50" relative="1" as="geometry">
            <mxPoint x="1199" y="321" as="sourcePoint" />
            <mxPoint x="1124" y="281" as="targetPoint" />
          </mxGeometry>
        </mxCell>
        <mxCell id="i-qYyfxA9N3GB8noAhmj-57" value="3，清退yarn" style="edgeLabel;html=1;align=center;verticalAlign=middle;resizable=0;points=[];" parent="i-qYyfxA9N3GB8noAhmj-49" vertex="1" connectable="0">
          <mxGeometry x="0.0422" relative="1" as="geometry">
            <mxPoint as="offset" />
          </mxGeometry>
        </mxCell>
        <mxCell id="i-qYyfxA9N3GB8noAhmj-50" value="" style="endArrow=classic;html=1;exitX=1;exitY=0.5;exitDx=0;exitDy=0;dashed=1;entryX=0;entryY=0.5;entryDx=0;entryDy=0;" parent="1" source="i-qYyfxA9N3GB8noAhmj-39" target="i-qYyfxA9N3GB8noAhmj-41" edge="1">
          <mxGeometry width="50" height="50" relative="1" as="geometry">
            <mxPoint x="904" y="281" as="sourcePoint" />
            <mxPoint x="1114" y="121" as="targetPoint" />
          </mxGeometry>
        </mxCell>
        <mxCell id="i-qYyfxA9N3GB8noAhmj-58" value="1，请求资源" style="edgeLabel;html=1;align=center;verticalAlign=middle;resizable=0;points=[];" parent="i-qYyfxA9N3GB8noAhmj-50" vertex="1" connectable="0">
          <mxGeometry x="-0.2923" y="3" relative="1" as="geometry">
            <mxPoint x="11.14" y="-1.4" as="offset" />
          </mxGeometry>
        </mxCell>
        <mxCell id="i-qYyfxA9N3GB8noAhmj-51" value="物理机" style="text;html=1;strokeColor=none;fillColor=none;align=center;verticalAlign=middle;whiteSpace=wrap;rounded=0;" parent="1" vertex="1">
          <mxGeometry x="1249" y="363.5" width="40" height="20" as="geometry" />
        </mxCell>
        <mxCell id="i-qYyfxA9N3GB8noAhmj-52" value="K8S container" style="rounded=1;whiteSpace=wrap;html=1;fillColor=#dae8fc;strokeColor=#6c8ebf;" parent="1" vertex="1">
          <mxGeometry x="1069" y="342" width="81" height="37" as="geometry" />
        </mxCell>
        <mxCell id="i-qYyfxA9N3GB8noAhmj-53" value="YARN container" style="rounded=1;whiteSpace=wrap;html=1;fillColor=#a20025;strokeColor=#6F0000;fontColor=#ffffff;" parent="1" vertex="1">
          <mxGeometry x="1323" y="342" width="81" height="37" as="geometry" />
        </mxCell>
        <mxCell id="i-qYyfxA9N3GB8noAhmj-54" value="" style="endArrow=classic;html=1;exitX=0.44;exitY=1.1;exitDx=0;exitDy=0;exitPerimeter=0;entryX=0.5;entryY=0;entryDx=0;entryDy=0;" parent="1" source="i-qYyfxA9N3GB8noAhmj-42" target="i-qYyfxA9N3GB8noAhmj-52" edge="1">
          <mxGeometry width="50" height="50" relative="1" as="geometry">
            <mxPoint x="877" y="330" as="sourcePoint" />
            <mxPoint x="927" y="280" as="targetPoint" />
          </mxGeometry>
        </mxCell>
        <mxCell id="i-qYyfxA9N3GB8noAhmj-63" value="6，启动container" style="edgeLabel;html=1;align=center;verticalAlign=middle;resizable=0;points=[];" parent="i-qYyfxA9N3GB8noAhmj-54" vertex="1" connectable="0">
          <mxGeometry x="0.1961" y="3" relative="1" as="geometry">
            <mxPoint as="offset" />
          </mxGeometry>
        </mxCell>
        <mxCell id="i-qYyfxA9N3GB8noAhmj-55" value="" style="endArrow=classic;html=1;exitX=0.5;exitY=1;exitDx=0;exitDy=0;" parent="1" source="i-qYyfxA9N3GB8noAhmj-44" target="i-qYyfxA9N3GB8noAhmj-53" edge="1">
          <mxGeometry width="50" height="50" relative="1" as="geometry">
            <mxPoint x="922" y="365" as="sourcePoint" />
            <mxPoint x="972" y="315" as="targetPoint" />
          </mxGeometry>
        </mxCell>
        <mxCell id="i-qYyfxA9N3GB8noAhmj-61" value="清理container" style="edgeLabel;html=1;align=center;verticalAlign=middle;resizable=0;points=[];" parent="i-qYyfxA9N3GB8noAhmj-55" vertex="1" connectable="0">
          <mxGeometry x="0.1551" y="-1" relative="1" as="geometry">
            <mxPoint as="offset" />
          </mxGeometry>
        </mxCell>
        <mxCell id="i-qYyfxA9N3GB8noAhmj-65" value="YARN Master" style="rounded=1;whiteSpace=wrap;html=1;fillColor=#ffe6cc;strokeColor=#d79b00;" parent="1" vertex="1">
          <mxGeometry x="560" y="718" width="120" height="60" as="geometry" />
        </mxCell>
        <mxCell id="i-qYyfxA9N3GB8noAhmj-67" value="" style="rounded=0;whiteSpace=wrap;html=1;" parent="1" vertex="1">
          <mxGeometry x="226" y="903" width="370" height="200" as="geometry" />
        </mxCell>
        <mxCell id="i-qYyfxA9N3GB8noAhmj-71" value="YARN Agent" style="rounded=1;whiteSpace=wrap;html=1;fillColor=#ffe6cc;strokeColor=#d79b00;" parent="1" vertex="1">
          <mxGeometry x="490" y="927" width="100" height="40" as="geometry" />
        </mxCell>
        <mxCell id="i-qYyfxA9N3GB8noAhmj-74" value="" style="endArrow=classic;html=1;exitX=0.308;exitY=1.067;exitDx=0;exitDy=0;entryX=0.5;entryY=0;entryDx=0;entryDy=0;exitPerimeter=0;" parent="1" source="i-qYyfxA9N3GB8noAhmj-65" target="i-qYyfxA9N3GB8noAhmj-71" edge="1">
          <mxGeometry width="50" height="50" relative="1" as="geometry">
            <mxPoint x="60" y="1037" as="sourcePoint" />
            <mxPoint x="110" y="987" as="targetPoint" />
          </mxGeometry>
        </mxCell>
        <mxCell id="i-qYyfxA9N3GB8noAhmj-78" value="Kafka物理机" style="text;html=1;strokeColor=none;fillColor=none;align=center;verticalAlign=middle;whiteSpace=wrap;rounded=0;" parent="1" vertex="1">
          <mxGeometry x="347" y="1059.5" width="79" height="20" as="geometry" />
        </mxCell>
        <mxCell id="i-qYyfxA9N3GB8noAhmj-80" value="YARN container" style="rounded=1;whiteSpace=wrap;html=1;fillColor=#ffe6cc;strokeColor=#d79b00;" parent="1" vertex="1">
          <mxGeometry x="499" y="1038" width="81" height="37" as="geometry" />
        </mxCell>
        <mxCell id="i-qYyfxA9N3GB8noAhmj-82" value="" style="endArrow=classic;html=1;exitX=0.25;exitY=1;exitDx=0;exitDy=0;entryX=0.173;entryY=-0.081;entryDx=0;entryDy=0;entryPerimeter=0;" parent="1" source="i-qYyfxA9N3GB8noAhmj-71" target="i-qYyfxA9N3GB8noAhmj-80" edge="1">
          <mxGeometry width="50" height="50" relative="1" as="geometry">
            <mxPoint x="98" y="1061" as="sourcePoint" />
            <mxPoint x="148" y="1011" as="targetPoint" />
          </mxGeometry>
        </mxCell>
        <mxCell id="i-qYyfxA9N3GB8noAhmj-83" value="agent自动感知机器负载，计算可分配资源，提前做避让" style="text;html=1;strokeColor=none;fillColor=none;align=center;verticalAlign=middle;whiteSpace=wrap;rounded=0;" parent="1" vertex="1">
          <mxGeometry x="390" y="974" width="115" height="20" as="geometry" />
        </mxCell>
        <mxCell id="i-qYyfxA9N3GB8noAhmj-84" value="Master根据agent上报的可分配资源，调度非重要作业到这批机器" style="text;html=1;strokeColor=none;fillColor=none;align=center;verticalAlign=middle;whiteSpace=wrap;rounded=0;" parent="1" vertex="1">
          <mxGeometry x="458" y="799" width="110" height="20" as="geometry" />
        </mxCell>
        <mxCell id="i-qYyfxA9N3GB8noAhmj-90" value="" style="endArrow=classic;html=1;dashed=1;exitX=0.68;exitY=1;exitDx=0;exitDy=0;entryX=0.75;entryY=0;entryDx=0;entryDy=0;exitPerimeter=0;" parent="1" source="i-qYyfxA9N3GB8noAhmj-71" target="i-qYyfxA9N3GB8noAhmj-80" edge="1">
          <mxGeometry width="50" height="50" relative="1" as="geometry">
            <mxPoint x="111" y="1038" as="sourcePoint" />
            <mxPoint x="161" y="988" as="targetPoint" />
          </mxGeometry>
        </mxCell>
        <mxCell id="i-qYyfxA9N3GB8noAhmj-91" value="资源紧张，&lt;br&gt;驱逐container" style="edgeLabel;html=1;align=center;verticalAlign=middle;resizable=0;points=[];" parent="i-qYyfxA9N3GB8noAhmj-90" vertex="1" connectable="0">
          <mxGeometry x="-0.1822" y="1" relative="1" as="geometry">
            <mxPoint as="offset" />
          </mxGeometry>
        </mxCell>
        <mxCell id="i-qYyfxA9N3GB8noAhmj-92" value="" style="rounded=0;whiteSpace=wrap;html=1;" parent="1" vertex="1">
          <mxGeometry x="614" y="903" width="370" height="200" as="geometry" />
        </mxCell>
        <mxCell id="i-qYyfxA9N3GB8noAhmj-94" value="YARN Agent" style="rounded=1;whiteSpace=wrap;html=1;fillColor=#ffe6cc;strokeColor=#d79b00;" parent="1" vertex="1">
          <mxGeometry x="664" y="924" width="100" height="40" as="geometry" />
        </mxCell>
        <mxCell id="i-qYyfxA9N3GB8noAhmj-95" value="YARN物理机" style="text;html=1;strokeColor=none;fillColor=none;align=center;verticalAlign=middle;whiteSpace=wrap;rounded=0;" parent="1" vertex="1">
          <mxGeometry x="813" y="1059.5" width="82" height="20" as="geometry" />
        </mxCell>
        <mxCell id="i-qYyfxA9N3GB8noAhmj-97" value="YARN container" style="rounded=1;whiteSpace=wrap;html=1;fillColor=#ffe6cc;strokeColor=#d79b00;" parent="1" vertex="1">
          <mxGeometry x="673.5" y="1038" width="81" height="37" as="geometry" />
        </mxCell>
        <mxCell id="i-qYyfxA9N3GB8noAhmj-99" value="" style="endArrow=classic;html=1;exitX=0.25;exitY=1;exitDx=0;exitDy=0;entryX=0.173;entryY=-0.081;entryDx=0;entryDy=0;entryPerimeter=0;" parent="1" source="i-qYyfxA9N3GB8noAhmj-94" target="i-qYyfxA9N3GB8noAhmj-97" edge="1">
          <mxGeometry width="50" height="50" relative="1" as="geometry">
            <mxPoint x="486" y="1061" as="sourcePoint" />
            <mxPoint x="536" y="1011" as="targetPoint" />
          </mxGeometry>
        </mxCell>
        <mxCell id="i-qYyfxA9N3GB8noAhmj-103" value="" style="endArrow=classic;html=1;dashed=1;exitX=0.68;exitY=1;exitDx=0;exitDy=0;entryX=0.75;entryY=0;entryDx=0;entryDy=0;exitPerimeter=0;" parent="1" source="i-qYyfxA9N3GB8noAhmj-94" target="i-qYyfxA9N3GB8noAhmj-97" edge="1">
          <mxGeometry width="50" height="50" relative="1" as="geometry">
            <mxPoint x="499" y="1038" as="sourcePoint" />
            <mxPoint x="549" y="988" as="targetPoint" />
          </mxGeometry>
        </mxCell>
        <mxCell id="i-qYyfxA9N3GB8noAhmj-104" value="资源紧张，&lt;br&gt;驱逐container" style="edgeLabel;html=1;align=center;verticalAlign=middle;resizable=0;points=[];" parent="i-qYyfxA9N3GB8noAhmj-103" vertex="1" connectable="0">
          <mxGeometry x="-0.1822" y="1" relative="1" as="geometry">
            <mxPoint as="offset" />
          </mxGeometry>
        </mxCell>
        <mxCell id="i-qYyfxA9N3GB8noAhmj-106" value="YARN container" style="rounded=1;whiteSpace=wrap;html=1;fillColor=#d5e8d4;strokeColor=#82b366;" parent="1" vertex="1">
          <mxGeometry x="853" y="925.5" width="81" height="37" as="geometry" />
        </mxCell>
        <mxCell id="i-qYyfxA9N3GB8noAhmj-108" value="Kafka" style="rounded=1;whiteSpace=wrap;html=1;fillColor=#e1d5e7;strokeColor=#9673a6;" parent="1" vertex="1">
          <mxGeometry x="250" y="939" width="102" height="50" as="geometry" />
        </mxCell>
        <mxCell id="i-qYyfxA9N3GB8noAhmj-109" value="" style="endArrow=classic;html=1;entryX=0.5;entryY=0;entryDx=0;entryDy=0;" parent="1" target="i-qYyfxA9N3GB8noAhmj-94" edge="1">
          <mxGeometry width="50" height="50" relative="1" as="geometry">
            <mxPoint x="637" y="781" as="sourcePoint" />
            <mxPoint x="339" y="801" as="targetPoint" />
          </mxGeometry>
        </mxCell>
        <mxCell id="i-qYyfxA9N3GB8noAhmj-110" value="" style="endArrow=classic;html=1;exitX=1;exitY=0.5;exitDx=0;exitDy=0;entryX=0;entryY=0.5;entryDx=0;entryDy=0;" parent="1" source="i-qYyfxA9N3GB8noAhmj-94" target="i-qYyfxA9N3GB8noAhmj-106" edge="1">
          <mxGeometry width="50" height="50" relative="1" as="geometry">
            <mxPoint x="144" y="1124" as="sourcePoint" />
            <mxPoint x="194" y="1074" as="targetPoint" />
          </mxGeometry>
        </mxCell>
        <mxCell id="i-qYyfxA9N3GB8noAhmj-112" value="YARN container" style="rounded=1;whiteSpace=wrap;html=1;fillColor=#ffe6cc;strokeColor=#d79b00;" parent="1" vertex="1">
          <mxGeometry x="752" y="718" width="81" height="37" as="geometry" />
        </mxCell>
        <mxCell id="i-qYyfxA9N3GB8noAhmj-113" value="YARN container" style="rounded=1;whiteSpace=wrap;html=1;fillColor=#d5e8d4;strokeColor=#82b366;" parent="1" vertex="1">
          <mxGeometry x="754" y="782" width="81" height="37" as="geometry" />
        </mxCell>
        <mxCell id="i-qYyfxA9N3GB8noAhmj-114" value="资源不受保障的Task" style="text;html=1;strokeColor=none;fillColor=none;align=center;verticalAlign=middle;whiteSpace=wrap;rounded=0;" parent="1" vertex="1">
          <mxGeometry x="869" y="730" width="117" height="20" as="geometry" />
        </mxCell>
        <mxCell id="i-qYyfxA9N3GB8noAhmj-115" value="资源受保障的Task" style="text;html=1;strokeColor=none;fillColor=none;align=center;verticalAlign=middle;whiteSpace=wrap;rounded=0;" parent="1" vertex="1">
          <mxGeometry x="871" y="788" width="117" height="20" as="geometry" />
        </mxCell>
        <mxCell id="pKl7SHDJn0OZxZOvTPrJ-1" value="" style="endArrow=classic;startArrow=classic;html=1;dashed=1;" parent="1" edge="1">
          <mxGeometry width="50" height="50" relative="1" as="geometry">
            <mxPoint x="364" y="28" as="sourcePoint" />
            <mxPoint x="291" y="82" as="targetPoint" />
          </mxGeometry>
        </mxCell>
        <mxCell id="pKl7SHDJn0OZxZOvTPrJ-2" value="" style="endArrow=classic;startArrow=classic;html=1;dashed=1;" parent="1" edge="1">
          <mxGeometry width="50" height="50" relative="1" as="geometry">
            <mxPoint x="487" y="26" as="sourcePoint" />
            <mxPoint x="592" y="85" as="targetPoint" />
          </mxGeometry>
        </mxCell>
        <mxCell id="pKl7SHDJn0OZxZOvTPrJ-4" value="" style="rounded=1;whiteSpace=wrap;html=1;" parent="1" vertex="1">
          <mxGeometry x="76.5" y="577" width="307" height="64" as="geometry" />
        </mxCell>
        <mxCell id="pKl7SHDJn0OZxZOvTPrJ-5" value="在线配额" style="rounded=1;whiteSpace=wrap;html=1;fillColor=#dae8fc;strokeColor=#6c8ebf;" parent="1" vertex="1">
          <mxGeometry x="77.5" y="579" width="159.5" height="60" as="geometry" />
        </mxCell>
        <mxCell id="pKl7SHDJn0OZxZOvTPrJ-6" value="离线保障配额" style="rounded=1;whiteSpace=wrap;html=1;fillColor=#ffe6cc;strokeColor=#d79b00;" parent="1" vertex="1">
          <mxGeometry x="238" y="577" width="107" height="60" as="geometry" />
        </mxCell>
        <mxCell id="pKl7SHDJn0OZxZOvTPrJ-7" value="超配资源配额" style="rounded=1;whiteSpace=wrap;html=1;fillColor=#60a917;strokeColor=#2D7600;fontColor=#ffffff;" parent="1" vertex="1">
          <mxGeometry x="271" y="652" width="111" height="60" as="geometry" />
        </mxCell>
        <mxCell id="pKl7SHDJn0OZxZOvTPrJ-8" value="BUFFER" style="rounded=1;whiteSpace=wrap;html=1;fillColor=#0050ef;strokeColor=#001DBC;fontColor=#ffffff;" parent="1" vertex="1">
          <mxGeometry x="214" y="652" width="55" height="60" as="geometry" />
        </mxCell>
        <mxCell id="pKl7SHDJn0OZxZOvTPrJ-9" value="BUF&lt;br&gt;FER" style="rounded=1;whiteSpace=wrap;html=1;fillColor=#0050ef;strokeColor=#001DBC;fontColor=#ffffff;" parent="1" vertex="1">
          <mxGeometry x="347" y="577" width="35" height="60" as="geometry" />
        </mxCell>
        <mxCell id="PJ8-2Goyk3axcg4vqFP9-1" value="在线作业提交" style="ellipse;shape=cloud;whiteSpace=wrap;html=1;" vertex="1" parent="1">
          <mxGeometry x="19" y="202" width="120" height="80" as="geometry" />
        </mxCell>
        <mxCell id="PJ8-2Goyk3axcg4vqFP9-2" value="离线作业提交" style="ellipse;shape=cloud;whiteSpace=wrap;html=1;" vertex="1" parent="1">
          <mxGeometry x="707" y="202" width="120" height="80" as="geometry" />
        </mxCell>
        <mxCell id="PJ8-2Goyk3axcg4vqFP9-3" value="扩容在线资源" style="ellipse;shape=cloud;whiteSpace=wrap;html=1;" vertex="1" parent="1">
          <mxGeometry x="172" y="-122" width="120" height="80" as="geometry" />
        </mxCell>
        <mxCell id="PJ8-2Goyk3axcg4vqFP9-4" value="扩容离线资源" style="ellipse;shape=cloud;whiteSpace=wrap;html=1;" vertex="1" parent="1">
          <mxGeometry x="544" y="-126" width="120" height="80" as="geometry" />
        </mxCell>
        <mxCell id="PJ8-2Goyk3axcg4vqFP9-5" value="" style="endArrow=classic;html=1;exitX=0.13;exitY=0.77;exitDx=0;exitDy=0;exitPerimeter=0;entryX=1;entryY=0;entryDx=0;entryDy=0;dashed=1;" edge="1" parent="1" source="PJ8-2Goyk3axcg4vqFP9-4" target="i-qYyfxA9N3GB8noAhmj-7">
          <mxGeometry width="50" height="50" relative="1" as="geometry">
            <mxPoint x="-18" y="189" as="sourcePoint" />
            <mxPoint x="32" y="139" as="targetPoint" />
          </mxGeometry>
        </mxCell>
        <mxCell id="PJ8-2Goyk3axcg4vqFP9-6" value="" style="endArrow=classic;html=1;entryX=0;entryY=0;entryDx=0;entryDy=0;exitX=0.96;exitY=0.7;exitDx=0;exitDy=0;exitPerimeter=0;dashed=1;" edge="1" parent="1" source="PJ8-2Goyk3axcg4vqFP9-3" target="i-qYyfxA9N3GB8noAhmj-7">
          <mxGeometry width="50" height="50" relative="1" as="geometry">
            <mxPoint x="315" y="-46" as="sourcePoint" />
            <mxPoint x="365" y="-96" as="targetPoint" />
          </mxGeometry>
        </mxCell>
        <mxCell id="PJ8-2Goyk3axcg4vqFP9-7" value="" style="endArrow=classic;html=1;exitX=0.335;exitY=0.103;exitDx=0;exitDy=0;exitPerimeter=0;entryX=1;entryY=0.75;entryDx=0;entryDy=0;" edge="1" parent="1" source="PJ8-2Goyk3axcg4vqFP9-2" target="i-qYyfxA9N3GB8noAhmj-4">
          <mxGeometry width="50" height="50" relative="1" as="geometry">
            <mxPoint x="2" y="209" as="sourcePoint" />
            <mxPoint x="52" y="159" as="targetPoint" />
          </mxGeometry>
        </mxCell>
        <mxCell id="PJ8-2Goyk3axcg4vqFP9-8" value="" style="endArrow=classic;html=1;exitX=0.625;exitY=0.2;exitDx=0;exitDy=0;exitPerimeter=0;entryX=-0.006;entryY=0.871;entryDx=0;entryDy=0;entryPerimeter=0;" edge="1" parent="1" source="PJ8-2Goyk3axcg4vqFP9-1" target="i-qYyfxA9N3GB8noAhmj-5">
          <mxGeometry width="50" height="50" relative="1" as="geometry">
            <mxPoint x="12" y="219" as="sourcePoint" />
            <mxPoint x="62" y="169" as="targetPoint" />
          </mxGeometry>
        </mxCell>
        <mxCell id="PJ8-2Goyk3axcg4vqFP9-9" value="Actor" style="shape=umlActor;verticalLabelPosition=bottom;labelBackgroundColor=#ffffff;verticalAlign=top;html=1;outlineConnect=0;" vertex="1" parent="1">
          <mxGeometry x="-1209" y="268" width="30" height="60" as="geometry" />
        </mxCell>
        <mxCell id="PJ8-2Goyk3axcg4vqFP9-10" value="在线资源池" style="rounded=1;whiteSpace=wrap;html=1;fillColor=#dae8fc;strokeColor=#6c8ebf;" vertex="1" parent="1">
          <mxGeometry x="-1094" y="146" width="120" height="60" as="geometry" />
        </mxCell>
        <mxCell id="PJ8-2Goyk3axcg4vqFP9-11" value="离线资源池（保障+ 混部资源）" style="rounded=1;whiteSpace=wrap;html=1;fillColor=#ffe6cc;strokeColor=#d79b00;" vertex="1" parent="1">
          <mxGeometry x="-1100" y="296" width="120" height="60" as="geometry" />
        </mxCell>
        <mxCell id="PJ8-2Goyk3axcg4vqFP9-13" value="实时资源池" style="rounded=1;whiteSpace=wrap;html=1;fillColor=#e1d5e7;strokeColor=#9673a6;" vertex="1" parent="1">
          <mxGeometry x="-1100" y="473" width="120" height="60" as="geometry" />
        </mxCell>
        <mxCell id="PJ8-2Goyk3axcg4vqFP9-15" value="K8S" style="rounded=1;whiteSpace=wrap;html=1;fillColor=#dae8fc;strokeColor=#6c8ebf;" vertex="1" parent="1">
          <mxGeometry x="-883" y="146" width="120" height="60" as="geometry" />
        </mxCell>
        <mxCell id="PJ8-2Goyk3axcg4vqFP9-16" value="YARN-FLINK" style="rounded=1;whiteSpace=wrap;html=1;fillColor=#e1d5e7;strokeColor=#9673a6;" vertex="1" parent="1">
          <mxGeometry x="-885" y="473" width="120" height="60" as="geometry" />
        </mxCell>
        <mxCell id="PJ8-2Goyk3axcg4vqFP9-17" value="YARN-OFFLINE" style="rounded=1;whiteSpace=wrap;html=1;fillColor=#ffe6cc;strokeColor=#d79b00;" vertex="1" parent="1">
          <mxGeometry x="-888" y="298" width="120" height="60" as="geometry" />
        </mxCell>
        <mxCell id="PJ8-2Goyk3axcg4vqFP9-18" value="在线" style="rounded=1;whiteSpace=wrap;html=1;fillColor=#dae8fc;strokeColor=#6c8ebf;" vertex="1" parent="1">
          <mxGeometry x="-638" y="101" width="78" height="48" as="geometry" />
        </mxCell>
        <mxCell id="PJ8-2Goyk3axcg4vqFP9-19" value="离线" style="rounded=1;whiteSpace=wrap;html=1;fillColor=#f8cecc;strokeColor=#b85450;" vertex="1" parent="1">
          <mxGeometry x="-559" y="101" width="41" height="48" as="geometry" />
        </mxCell>
        <mxCell id="PJ8-2Goyk3axcg4vqFP9-20" value="在线" style="rounded=1;whiteSpace=wrap;html=1;fillColor=#dae8fc;strokeColor=#6c8ebf;" vertex="1" parent="1">
          <mxGeometry x="-638" y="180" width="60" height="48" as="geometry" />
        </mxCell>
        <mxCell id="PJ8-2Goyk3axcg4vqFP9-21" value="离线" style="rounded=1;whiteSpace=wrap;html=1;fillColor=#f8cecc;strokeColor=#b85450;" vertex="1" parent="1">
          <mxGeometry x="-578" y="180" width="60" height="48" as="geometry" />
        </mxCell>
        <mxCell id="PJ8-2Goyk3axcg4vqFP9-22" value="离线保障" style="rounded=1;whiteSpace=wrap;html=1;fillColor=#ffe6cc;strokeColor=#d79b00;" vertex="1" parent="1">
          <mxGeometry x="-640" y="298" width="60" height="48" as="geometry" />
        </mxCell>
        <mxCell id="PJ8-2Goyk3axcg4vqFP9-23" value="离线超配" style="rounded=1;whiteSpace=wrap;html=1;fillColor=#f8cecc;strokeColor=#b85450;" vertex="1" parent="1">
          <mxGeometry x="-580" y="298" width="60" height="48" as="geometry" />
        </mxCell>
        <mxCell id="PJ8-2Goyk3axcg4vqFP9-24" value="实时保障" style="rounded=1;whiteSpace=wrap;html=1;fillColor=#e1d5e7;strokeColor=#9673a6;" vertex="1" parent="1">
          <mxGeometry x="-646" y="449" width="83" height="48" as="geometry" />
        </mxCell>
        <mxCell id="PJ8-2Goyk3axcg4vqFP9-25" value="离线" style="rounded=1;whiteSpace=wrap;html=1;fillColor=#f8cecc;strokeColor=#b85450;" vertex="1" parent="1">
          <mxGeometry x="-561" y="449" width="35" height="48" as="geometry" />
        </mxCell>
        <mxCell id="PJ8-2Goyk3axcg4vqFP9-26" value="实时保障" style="rounded=1;whiteSpace=wrap;html=1;fillColor=#e1d5e7;strokeColor=#9673a6;" vertex="1" parent="1">
          <mxGeometry x="-646" y="525" width="120" height="48" as="geometry" />
        </mxCell>
        <mxCell id="PJ8-2Goyk3axcg4vqFP9-28" value="ares" style="rounded=1;whiteSpace=wrap;html=1;fillColor=#60a917;strokeColor=#2D7600;fontColor=#ffffff;" vertex="1" parent="1">
          <mxGeometry x="-380" y="208" width="120" height="60" as="geometry" />
        </mxCell>
        <mxCell id="PJ8-2Goyk3axcg4vqFP9-29" value="调节在离线资源配比" style="ellipse;shape=cloud;whiteSpace=wrap;html=1;" vertex="1" parent="1">
          <mxGeometry x="-376" y="54" width="161" height="80" as="geometry" />
        </mxCell>
        <mxCell id="PJ8-2Goyk3axcg4vqFP9-30" value="在线" style="rounded=1;whiteSpace=wrap;html=1;fillColor=#dae8fc;strokeColor=#6c8ebf;" vertex="1" parent="1">
          <mxGeometry x="-640" y="22" width="120" height="48" as="geometry" />
        </mxCell>
        <mxCell id="PJ8-2Goyk3axcg4vqFP9-33" value="逻辑资源视角" style="text;html=1;strokeColor=none;fillColor=none;align=center;verticalAlign=middle;whiteSpace=wrap;rounded=0;" vertex="1" parent="1">
          <mxGeometry x="-1084" y="87" width="96" height="20" as="geometry" />
        </mxCell>
        <mxCell id="PJ8-2Goyk3axcg4vqFP9-34" value="" style="endArrow=classic;html=1;exitX=1.016;exitY=0.117;exitDx=0;exitDy=0;exitPerimeter=0;entryX=0;entryY=0.5;entryDx=0;entryDy=0;" edge="1" parent="1" source="PJ8-2Goyk3axcg4vqFP9-15" target="PJ8-2Goyk3axcg4vqFP9-30">
          <mxGeometry width="50" height="50" relative="1" as="geometry">
            <mxPoint x="-854" y="90" as="sourcePoint" />
            <mxPoint x="-804" y="40" as="targetPoint" />
          </mxGeometry>
        </mxCell>
        <mxCell id="PJ8-2Goyk3axcg4vqFP9-35" value="" style="endArrow=classic;html=1;exitX=1;exitY=0.5;exitDx=0;exitDy=0;entryX=0;entryY=0.5;entryDx=0;entryDy=0;" edge="1" parent="1" source="PJ8-2Goyk3axcg4vqFP9-15" target="PJ8-2Goyk3axcg4vqFP9-18">
          <mxGeometry width="50" height="50" relative="1" as="geometry">
            <mxPoint x="-751.0799999999999" y="163.01999999999998" as="sourcePoint" />
            <mxPoint x="-630" y="56" as="targetPoint" />
          </mxGeometry>
        </mxCell>
        <mxCell id="PJ8-2Goyk3axcg4vqFP9-36" value="" style="endArrow=classic;html=1;exitX=1;exitY=0.75;exitDx=0;exitDy=0;entryX=0;entryY=0.5;entryDx=0;entryDy=0;" edge="1" parent="1" source="PJ8-2Goyk3axcg4vqFP9-15" target="PJ8-2Goyk3axcg4vqFP9-20">
          <mxGeometry width="50" height="50" relative="1" as="geometry">
            <mxPoint x="-753" y="186" as="sourcePoint" />
            <mxPoint x="-628" y="135" as="targetPoint" />
          </mxGeometry>
        </mxCell>
        <mxCell id="PJ8-2Goyk3axcg4vqFP9-37" value="" style="endArrow=classic;html=1;exitX=1;exitY=0.25;exitDx=0;exitDy=0;entryX=0;entryY=1;entryDx=0;entryDy=0;" edge="1" parent="1" source="PJ8-2Goyk3axcg4vqFP9-17" target="PJ8-2Goyk3axcg4vqFP9-18">
          <mxGeometry width="50" height="50" relative="1" as="geometry">
            <mxPoint x="-1267" y="424" as="sourcePoint" />
            <mxPoint x="-1217" y="374" as="targetPoint" />
          </mxGeometry>
        </mxCell>
        <mxCell id="PJ8-2Goyk3axcg4vqFP9-38" value="" style="endArrow=classic;html=1;exitX=1;exitY=0.5;exitDx=0;exitDy=0;entryX=0;entryY=1;entryDx=0;entryDy=0;" edge="1" parent="1" source="PJ8-2Goyk3axcg4vqFP9-17" target="PJ8-2Goyk3axcg4vqFP9-20">
          <mxGeometry width="50" height="50" relative="1" as="geometry">
            <mxPoint x="-758" y="323" as="sourcePoint" />
            <mxPoint x="-628" y="159" as="targetPoint" />
          </mxGeometry>
        </mxCell>
        <mxCell id="PJ8-2Goyk3axcg4vqFP9-39" value="" style="endArrow=classic;html=1;entryX=0;entryY=0.5;entryDx=0;entryDy=0;" edge="1" parent="1" target="PJ8-2Goyk3axcg4vqFP9-22">
          <mxGeometry width="50" height="50" relative="1" as="geometry">
            <mxPoint x="-765" y="331" as="sourcePoint" />
            <mxPoint x="-628" y="238" as="targetPoint" />
          </mxGeometry>
        </mxCell>
        <mxCell id="PJ8-2Goyk3axcg4vqFP9-40" value="" style="endArrow=classic;html=1;entryX=0;entryY=0;entryDx=0;entryDy=0;exitX=1;exitY=0.75;exitDx=0;exitDy=0;" edge="1" parent="1" source="PJ8-2Goyk3axcg4vqFP9-17" target="PJ8-2Goyk3axcg4vqFP9-24">
          <mxGeometry width="50" height="50" relative="1" as="geometry">
            <mxPoint x="-755" y="341" as="sourcePoint" />
            <mxPoint x="-630" y="332" as="targetPoint" />
          </mxGeometry>
        </mxCell>
        <mxCell id="PJ8-2Goyk3axcg4vqFP9-42" value="" style="endArrow=classic;html=1;exitX=1;exitY=0.25;exitDx=0;exitDy=0;entryX=0;entryY=0.5;entryDx=0;entryDy=0;" edge="1" parent="1" source="PJ8-2Goyk3axcg4vqFP9-16" target="PJ8-2Goyk3axcg4vqFP9-24">
          <mxGeometry width="50" height="50" relative="1" as="geometry">
            <mxPoint x="-1266" y="459" as="sourcePoint" />
            <mxPoint x="-1216" y="409" as="targetPoint" />
          </mxGeometry>
        </mxCell>
        <mxCell id="PJ8-2Goyk3axcg4vqFP9-43" value="" style="endArrow=classic;html=1;exitX=1;exitY=0.75;exitDx=0;exitDy=0;entryX=0;entryY=0.5;entryDx=0;entryDy=0;" edge="1" parent="1" source="PJ8-2Goyk3axcg4vqFP9-16" target="PJ8-2Goyk3axcg4vqFP9-26">
          <mxGeometry width="50" height="50" relative="1" as="geometry">
            <mxPoint x="-755" y="498" as="sourcePoint" />
            <mxPoint x="-636" y="483" as="targetPoint" />
          </mxGeometry>
        </mxCell>
        <mxCell id="PJ8-2Goyk3axcg4vqFP9-44" value="" style="endArrow=classic;html=1;entryX=0;entryY=0.5;entryDx=0;entryDy=0;" edge="1" parent="1" target="PJ8-2Goyk3axcg4vqFP9-16">
          <mxGeometry width="50" height="50" relative="1" as="geometry">
            <mxPoint x="-980" y="504" as="sourcePoint" />
            <mxPoint x="-930" y="454" as="targetPoint" />
          </mxGeometry>
        </mxCell>
        <mxCell id="PJ8-2Goyk3axcg4vqFP9-45" value="" style="endArrow=classic;html=1;exitX=0.878;exitY=0.498;exitDx=0;exitDy=0;exitPerimeter=0;entryX=0;entryY=0.5;entryDx=0;entryDy=0;" edge="1" parent="1" source="PJ8-2Goyk3axcg4vqFP9-32" target="PJ8-2Goyk3axcg4vqFP9-17">
          <mxGeometry width="50" height="50" relative="1" as="geometry">
            <mxPoint x="-1308" y="491" as="sourcePoint" />
            <mxPoint x="-1258" y="441" as="targetPoint" />
          </mxGeometry>
        </mxCell>
        <mxCell id="PJ8-2Goyk3axcg4vqFP9-46" value="" style="endArrow=classic;html=1;exitX=1;exitY=0.5;exitDx=0;exitDy=0;entryX=0;entryY=0.5;entryDx=0;entryDy=0;" edge="1" parent="1" source="PJ8-2Goyk3axcg4vqFP9-10" target="PJ8-2Goyk3axcg4vqFP9-15">
          <mxGeometry width="50" height="50" relative="1" as="geometry">
            <mxPoint x="-1298" y="501" as="sourcePoint" />
            <mxPoint x="-1248" y="451" as="targetPoint" />
          </mxGeometry>
        </mxCell>
        <mxCell id="PJ8-2Goyk3axcg4vqFP9-48" value="机器资源" style="text;html=1;strokeColor=none;fillColor=none;align=center;verticalAlign=middle;whiteSpace=wrap;rounded=0;dashed=1;" vertex="1" parent="1">
          <mxGeometry x="-626" y="-29" width="74" height="20" as="geometry" />
        </mxCell>
        <mxCell id="PJ8-2Goyk3axcg4vqFP9-51" value="" style="endArrow=classic;html=1;exitX=0;exitY=0.5;exitDx=0;exitDy=0;entryX=1;entryY=0.5;entryDx=0;entryDy=0;" edge="1" parent="1" source="PJ8-2Goyk3axcg4vqFP9-28" target="PJ8-2Goyk3axcg4vqFP9-21">
          <mxGeometry width="50" height="50" relative="1" as="geometry">
            <mxPoint x="-103" y="354" as="sourcePoint" />
            <mxPoint x="-53" y="304" as="targetPoint" />
          </mxGeometry>
        </mxCell>
        <mxCell id="PJ8-2Goyk3axcg4vqFP9-52" value="" style="endArrow=classic;html=1;exitX=0;exitY=0.75;exitDx=0;exitDy=0;entryX=1;entryY=0.5;entryDx=0;entryDy=0;" edge="1" parent="1" source="PJ8-2Goyk3axcg4vqFP9-28" target="PJ8-2Goyk3axcg4vqFP9-23">
          <mxGeometry width="50" height="50" relative="1" as="geometry">
            <mxPoint x="-93" y="364" as="sourcePoint" />
            <mxPoint x="-43" y="314" as="targetPoint" />
          </mxGeometry>
        </mxCell>
        <mxCell id="PJ8-2Goyk3axcg4vqFP9-53" value="" style="endArrow=classic;html=1;exitX=0;exitY=1;exitDx=0;exitDy=0;entryX=1;entryY=0.5;entryDx=0;entryDy=0;" edge="1" parent="1" source="PJ8-2Goyk3axcg4vqFP9-28" target="PJ8-2Goyk3axcg4vqFP9-25">
          <mxGeometry width="50" height="50" relative="1" as="geometry">
            <mxPoint x="-83" y="374" as="sourcePoint" />
            <mxPoint x="-33" y="324" as="targetPoint" />
          </mxGeometry>
        </mxCell>
        <mxCell id="PJ8-2Goyk3axcg4vqFP9-54" value="" style="endArrow=classic;html=1;exitX=0;exitY=0.25;exitDx=0;exitDy=0;entryX=1;entryY=0.5;entryDx=0;entryDy=0;" edge="1" parent="1" source="PJ8-2Goyk3axcg4vqFP9-28" target="PJ8-2Goyk3axcg4vqFP9-19">
          <mxGeometry width="50" height="50" relative="1" as="geometry">
            <mxPoint x="-73" y="384" as="sourcePoint" />
            <mxPoint x="-23" y="334" as="targetPoint" />
          </mxGeometry>
        </mxCell>
        <mxCell id="PJ8-2Goyk3axcg4vqFP9-55" value="物理资源视角" style="text;html=1;strokeColor=none;fillColor=none;align=center;verticalAlign=middle;whiteSpace=wrap;rounded=0;dashed=1;" vertex="1" parent="1">
          <mxGeometry x="-431" y="-86" width="145" height="51" as="geometry" />
        </mxCell>
        <mxCell id="PJ8-2Goyk3axcg4vqFP9-56" value="" style="rounded=1;whiteSpace=wrap;html=1;dashed=1;" vertex="1" parent="1">
          <mxGeometry x="-1996" y="-76" width="416" height="404" as="geometry" />
        </mxCell>
        <mxCell id="PJ8-2Goyk3axcg4vqFP9-57" value="&lt;font style=&quot;font-size: 18px&quot;&gt;配置管理&lt;/font&gt;" style="rounded=1;whiteSpace=wrap;html=1;dashed=1;" vertex="1" parent="1">
          <mxGeometry x="-2164" y="1" width="120" height="60" as="geometry" />
        </mxCell>
      </root>
    </mxGraphModel>
  </diagram>
</mxfile>
